<svg xmlns="http://www.w3.org/2000/svg" viewBox="0 0 414.4 414.4"><path d="M349.9 132.8h-37a128.9 128.9 0 0 0-105.7-54.9c-42.3 0-81.4 20.4-105.7 54.9h-37C28.9 132.8 0 161.7 0 197.3v19.9c0 35.5 29 64.4 64.5 64.4h37a128.9 128.9 0 0 0 105.7 54.9 129 129 0 0 0 105.6-54.8h37c35.7 0 64.6-29 64.6-64.6v-19.9c0-35.5-29-64.4-64.5-64.4zm-183 50.4l-20.3 56.1c-.3 1-1.3 1.7-2.3 1.7h-7.6c-1-.1-2-.8-2.3-1.8l-12-35.6-12 35.6c-.3 1-1.2 1.7-2.3 1.7l-7.5.1c-1.1 0-2-.6-2.4-1.6l-20.7-56.2A2.5 2.5 0 0 1 79 180l7.5-2.8c1.3-.4 2.7.2 3.2 1.5l14.3 38.9 12.3-36.4c.3-1 1.3-1.7 2.4-1.7h7.6c1 0 2 .6 2.3 1.7l12.2 36.2 14-38.6a2.5 2.5 0 0 1 3.1-1.5l7.6 2.7c1.2.5 2 1.9 1.5 3.2zm18.3 53c0 1.5-1.2 2.6-2.5 2.6h-8a2.5 2.5 0 0 1-2.5-2.5V200c0-1.3 1-2.5 2.5-2.5h8c1.3 0 2.5 1.2 2.5 2.5v36.2zm-6.5-45.2a7.5 7.5 0 1 1 0-15 7.5 7.5 0 0 1 0 15zm219.7 26.1a48.5 48.5 0 0 1-48.5 48.5l-115 .1h-26.6c5-5.2 8.6-11.7 8.6-20v-49.4a47.6 47.6 0 0 1 47.5-47.6H350a48.5 48.5 0 0 1 48.5 48.5v20z"/><path d="M294 173.4h-36.6a2.5 2.5 0 0 0-2.5 2.5v60.9c0 1.3 1 2.5 2.5 2.5h8c1.3 0 2.5-1.2 2.5-2.5V215h21c1.3 0 2.4-1.2 2.4-2.5v-8c0-1.4-1-2.5-2.5-2.5h-21v-15.6H294c1.4 0 2.5-1.1 2.5-2.5v-8c0-1.4-1-2.5-2.5-2.5zM317.6 198.5h-8a2.5 2.5 0 0 0-2.5 2.5v36.2c0 1.4 1 2.5 2.5 2.5h8c1.4 0 2.5-1.1 2.5-2.5V201c0-1.4-1.1-2.5-2.5-2.5zM313.6 176a7.5 7.5 0 1 0 0 15 7.5 7.5 0 0 0 0-15z"/></svg>
