<svg xmlns="http://www.w3.org/2000/svg" viewBox="0 0 506.1 506.1"><g fill="#E94A7E">
  <path d="M250.1 2.5l-69.5 60.3 21 24.1L250 45l224 194v232.7h-128v32h160V224.3z"/><path d="M0 147.3l21.7 23.5a127.8 127.8 0 0 1 172.2 0l21.7-23.5a159.9 159.9 0 0 0-215.6 0z"/><path d="M151.8 219l21.8-23.4a96.1 96.1 0 0 0-131.6 0L63.8 219c25-22.6 63-22.6 88 0zM138.1 247.6h-64a48 48 0 0 0-48 48v160a48 48 0 0 0 48 48h64a48 48 0 0 0 48-48v-160a48 48 0 0 0-48-48zm16 208a16 16 0 0 1-16 16h-64a16 16 0 0 1-16-16v-160a16 16 0 0 1 16-16h64a16 16 0 0 1 16 16v160z"/><path d="M90.1 311.6h32v32h-32zM218.1 471.6h32v32h-32zM282.1 471.6h32v32h-32z"/>
</g></svg>
