<?xml version="1.0" encoding="UTF-8"?>
<!DOCTYPE svg PUBLIC "-//W3C//DTD SVG 1.1//EN" "http://www.w3.org/Graphics/SVG/1.1/DTD/svg11.dtd">
<!-- Creator: CorelDRAW 2017 -->
<svg xmlns="http://www.w3.org/2000/svg" xml:space="preserve" width="112px" height="114px" version="1.1" shape-rendering="geometricPrecision" text-rendering="geometricPrecision" image-rendering="optimizeQuality" fill-rule="evenodd" clip-rule="evenodd"
viewBox="0 0 103.36 104.65"
 xmlns:xlink="http://www.w3.org/1999/xlink">
 <g id="Слой_x0020_1">
  <metadata id="CorelCorpID_0Corel-Layer"/>
  <path fill="#E94A7E" fill-rule="nonzero" d="M45.54 61.54c0.18,0 0.36,-0.02 0.53,-0.07l12.62 -3.15c1.65,-0.41 2.23,-2.48 1.02,-3.69l-9.46 -9.45c-1.21,-1.21 -3.27,-0.64 -3.69,1.02l-3.15 12.61c-0.19,0.75 0.03,1.54 0.58,2.09 0.41,0.41 0.98,0.64 1.55,0.64z"/>
  <path fill="#E94A7E" fill-rule="nonzero" d="M101.44 8.9l-6.98 -6.98c-2.56,-2.56 -6.76,-2.56 -9.32,0l-32.07 32.07c-2.58,2.58 -2.58,6.75 0,9.33l6.97 6.97c2.58,2.58 6.76,2.58 9.33,0l32.07 -32.07c1.18,-1.19 1.86,-2.75 1.92,-4.42l0 -0.5c-0.06,-1.67 -0.74,-3.22 -1.92,-4.4z"/>
  <path fill="#E94A7E" fill-rule="nonzero" d="M64.4 60.69c-0.09,0.02 -0.16,0.07 -0.24,0.09l-16.39 4.1c-0.51,0.13 -1.06,0.2 -1.61,0.2 -1.73,0 -3.43,-0.71 -4.66,-1.93 -1.63,-1.63 -2.3,-4.03 -1.73,-6.27l4.09 -16.4c0.03,-0.08 0.08,-0.15 0.1,-0.22l-0.91 -0.92c-0.41,-0.41 -0.97,-0.64 -1.55,-0.64l-6.33 0 0 30.77 6.6 0c1.21,0 2.2,0.99 2.2,2.2 0,1.22 -0.98,2.2 -2.2,2.2l-6.6 0 0 6.6c0,1.21 -0.98,2.19 -2.2,2.19 -1.21,0 -2.19,-0.98 -2.19,-2.19l0 -6.6 -6.6 0c-1.21,0 -2.2,-0.98 -2.2,-2.2 0,-1.21 0.99,-2.2 2.2,-2.2l6.6 0 0 -30.77 -28.58 0c-1.21,0 -2.2,0.98 -2.2,2.2l0 28.57 10.99 0c1.21,0 2.2,0.99 2.2,2.2 0,1.22 -0.98,2.2 -2.2,2.2l-10.99 0 0 6.6c0,1.21 0.99,2.19 2.2,2.19l2.2 0 0 8.8 -2.2 0c-0.58,0 -1.14,0.23 -1.56,0.64 -0.41,0.41 -0.64,0.97 -0.64,1.56l0 8.79c0,1.21 0.99,2.2 2.2,2.2l28.58 0 0 -10.99c0,-1.22 0.98,-2.2 2.19,-2.2 1.22,0 2.2,0.98 2.2,2.2l0 10.99 28.58 0c1.21,0 2.2,-0.99 2.2,-2.2l0 -28.58 -10.99 0c-1.22,0 -2.2,-0.98 -2.2,-2.2 0,-1.21 0.98,-2.2 2.2,-2.2l10.99 0 0 -6.32c0,-0.58 -0.24,-1.14 -0.64,-1.55l-0.91 -0.91z"/>
 </g>
</svg>
