<?xml version="1.0" encoding="UTF-8"?>
<!DOCTYPE svg PUBLIC "-//W3C//DTD SVG 1.1//EN" "http://www.w3.org/Graphics/SVG/1.1/DTD/svg11.dtd">
<!-- Creator: CorelDRAW 2017 -->
<svg xmlns="http://www.w3.org/2000/svg" xml:space="preserve" width="130px" height="115px" version="1.1" shape-rendering="geometricPrecision" text-rendering="geometricPrecision" image-rendering="optimizeQuality" fill-rule="evenodd" clip-rule="evenodd"
viewBox="0 0 10.19 8.97"
 xmlns:xlink="http://www.w3.org/1999/xlink">
 <g id="Слой_x0020_1">
  <metadata id="CorelCorpID_0Corel-Layer"/>
  <path fill="#E94A7E" d="M2.02 0.67c0,0.1 0.21,0.66 0.25,0.79 0.08,0.23 0.08,0.6 0.12,0.68 0.03,0.05 0.09,0.1 0.15,0.12l-0.09 -1.26c0,-0.18 -0.04,-0.22 0.05,-0.37 0.06,-0.09 0.14,-0.15 0.28,-0.16 0.13,-0.01 0.3,-0.03 0.43,-0.03 0.29,0 0.52,-0.05 0.86,-0.05l0.2 0.68c0.03,0.04 0.83,0.61 0.86,0.66 0.02,0.04 0.04,0.26 0.04,0.32l3.75 -0.36c0.26,-0.04 0.7,-0.06 0.94,-0.09 0.1,-0.02 0.22,-0.03 0.33,-0.03 0,-0.39 0.04,-0.25 -0.27,-0.64 -0.05,-0.06 -0.09,-0.11 -0.14,-0.18 -0.21,-0.26 -0.13,-0.44 -0.32,-0.63 -0.2,-0.19 -0.49,-0.1 -0.78,-0.09 -0.05,0.01 -0.1,0 -0.16,0 -0.07,0.01 -0.06,0.02 -0.14,0.02l-0.6 0.04c-0.39,0 -0.8,0.06 -1.2,0.07l-1.02 0.07c-0.06,0 -0.11,-0.01 -0.16,0l-1.79 0.12c-0.08,0 -0.07,0.01 -0.14,0.02 -0.05,0 -0.1,-0.01 -0.16,0 -0.19,0.01 -1.07,0.05 -1.16,0.1 -0.06,0.04 -0.13,0.1 -0.13,0.2z"/>
  <path fill="#E94A7E" d="M0.2 8.93l3.2 0.04 -0.05 -2.67c0.08,0.02 0.16,0.06 0.23,0.09 0.41,0.15 0.84,0.28 1.28,0.35 0.58,0.1 1.1,0.09 1.65,-0.12 0.13,-0.04 0.26,-0.11 0.37,-0.18 0.21,-0.15 0.41,-0.33 0.55,-0.54 0.04,-0.06 0.06,-0.1 0.1,-0.17l0.09 -0.19c0.1,-0.21 0.22,-0.65 0.22,-0.88l-0.37 0c-0.06,0.66 -0.45,1.38 -1.1,1.61 -0.82,0.3 -1.84,0.06 -2.6,-0.25l-0.36 -0.16c-0.08,-0.04 -0.06,-0.03 -0.06,-0.14 -0.06,0.03 -0.36,0.18 -0.41,0.18 -0.42,0 -0.33,-0.32 -0.33,-0.89 0,-0.49 0.74,-0.26 0.74,-0.42l0 -0.09 -3.35 0c0,0.31 0.13,4.19 0.2,4.43z"/>
  <path fill="#E94A7E" d="M5.17 2.13l0 0.59c0,0.11 -0.1,0.17 -0.13,0.26l2.89 -0.34c0.25,-0.04 0.47,-0.05 0.72,-0.08l1.26 -0.15c0.11,-0.02 0.07,-0.01 0.14,-0.08 0.18,-0.17 0.14,-0.01 0.14,-0.67 -0.14,0.03 -0.44,0.04 -0.61,0.06 -0.29,0.04 -0.94,0.08 -1.26,0.12l-3.15 0.29z"/>
  <path fill="#E94A7E" d="M2.7 4.96l0 0.69c0,0.09 0.1,0.18 0.17,0.18 0.13,0 0.34,-0.14 0.46,-0.19 0.08,-0.03 1.56,-0.23 1.65,-0.25 0.37,-0.06 0.74,-0.12 1.11,-0.16 0.14,-0.02 0.17,-0.12 0.31,-0.32 0.05,-0.07 0.09,-0.12 0.14,-0.19 0.17,-0.23 0.13,-0.11 0.13,-0.52 -0.09,0 -0.17,0.02 -0.25,0.03 -0.09,0.02 -0.17,0.03 -0.26,0.04l-2.57 0.4c-0.18,0.03 -0.34,0.05 -0.51,0.08 -0.16,0.03 -0.38,0.02 -0.38,0.21z"/>
  <path fill="#E94A7E" d="M2.89 3.05c0.29,0 0.69,-0.03 0.9,-0.03l0.89 -0.05c0.13,-0.02 0.16,0 0.25,-0.07 0.15,-0.13 0.11,-0.2 0.11,-0.43 0,-0.25 -0.03,-0.45 -0.03,-0.69l-0.42 -0.3c0,0.19 0.01,0.31 0.01,0.5 0,0.18 0.06,0.28 -0.05,0.42 -0.15,0.17 -0.62,0.11 -0.88,0.15 -0.65,0.08 -0.61,-0.12 -0.62,-0.86 0,-0.1 -0.02,-0.12 -0.02,-0.23 0,-0.19 -0.03,-0.35 0.13,-0.45 0.1,-0.07 0.13,-0.05 0.28,-0.06l0.32 -0.02c0.11,0 0.18,-0.01 0.31,-0.01 -0.02,-0.11 -0.1,-0.34 -0.1,-0.41 -0.15,0 -0.37,0.01 -0.5,0.03 -0.66,0.09 -0.96,-0.14 -0.9,0.68 0.03,0.32 0.05,0.69 0.05,1.02l0.03 0.5c0.03,0.19 0.16,0.31 0.24,0.31z"/>
  <path fill="#E94A7E" d="M5.88 3.02l0.3 0.24c0.18,0.14 0.2,0.2 0.44,0.2 0.25,0 0.49,-0.05 0.72,-0.07 0.13,-0.01 0.95,-0.09 1.05,-0.13 0.13,-0.05 0.16,-0.08 0.24,-0.18l0.34 -0.45c-0.14,0 -0.6,0.07 -0.78,0.09l-2.31 0.3z"/>
  <path fill="#E94A7E" d="M6.95 3.55l0 0.6 1.15 0 0 -0.73c-0.2,0 -0.91,0.11 -1.15,0.13z"/>
  <path fill="#E94A7E" d="M6.85 4.41c0,0.09 0.05,0.14 0.14,0.14l1.08 0c0.21,0 0.21,-0.28 0,-0.28l-1.05 0c-0.1,0 -0.17,0.04 -0.17,0.14z"/>
 </g>
</svg>
