<svg class="top-view-benefits__svg" viewBox="0 0 1280 725" preserveAspectRatio="xMidYMid slice">
  <g id="Layer_1" data-name="Layer 1">
    <image id="bg" width="1280" height="725" xlink:href="images/top-view/bg.jpg" />
  </g>
  <g id="icons">
    <a href="#popup-horse" data-src="#popup-horse" data-fancybox>
      <g id="horse">
        <g id="circles" data-name="circles">
          <circle cx="704" cy="180" r="38" fill="#fff" opacity="0.5" />
          <circle cx="704" cy="180" r="30" fill="#fff" opacity="0.5" />
          <circle cx="704" cy="180" r="22" fill="#fff" />
        </g>
        <circle id="bg-icon" data-name="bg-icon" cx="704" cy="180" r="15" fill="#cbe1bf" />
        <path id="symbol" d="M719.9,190.8a1.4,1.4,0,0,0-1.8-1h-.2l-2.4.9-2.4-16.2,1.5,1.8h.6l2.7-1.5a.6.6,0,0,0,0-.6l-3-6.9v-1.8a.6.6,0,0,0-.6-.6c-3.6,0-6.3.9-8.1,3s-3,7.8-3,9.3h-3.6a5.3,5.3,0,0,0-2.4.6,2.5,2.5,0,0,0-1.2-1.8,2.6,2.6,0,0,0-2.1,0c-.9.3-1.5,1.2-2.1,2.4a.9.9,0,0,1-.9.6,2,2,0,0,1-1.8-1.2c.1-.2-.1-.5-.3-.6a.6.6,0,0,0-.6.6,7.4,7.4,0,0,0,0,2.1c.3,2.1,1.5,2.7,2.4,2.7h.6a3.3,3.3,0,0,0,3-2.1l.6-.3a5,5,0,0,0-.9,2.4l-1.2,8.1-2.4-.9a1.4,1.4,0,0,0-2,.4,1.5,1.5,0,0,0,.4,2.1l.4.2c3.6,1.5,9,2.4,15,2.4s11.7-.9,14.9-2.4A1.4,1.4,0,0,0,719.9,190.8ZM699,178.5v2.4a2.7,2.7,0,0,0,2.7,2.7v2.7a10.9,10.9,0,0,1-3.6-1.2.7.7,0,0,0-.6.3l-1.2,3.6h-2.1l.6-6.3A4.9,4.9,0,0,1,699,178.5Zm5.1,0v2.4a1.7,1.7,0,0,1-1.5,1.5H702a1.7,1.7,0,0,1-1.8-1.5v-2.4Zm-6,7.8a13.6,13.6,0,0,0,3.9,1.2h.3a15.1,15.1,0,0,0,7.8-1.2l1.5,5.1-7.5.6-7.2-.6Zm14.4,5.1-.3-1.5h2.1v.9Zm2.4-16.2-2.1-2.7a.8.8,0,0,0-.9.2c0,.1-.1.3,0,.4L714,189h-2.1l-1.2-3.6a.7.7,0,0,0-.6-.3,13.9,13.9,0,0,1-7.5,1.5v-3a2.7,2.7,0,0,0,2.7-2.7v-2.7a2.3,2.3,0,0,0,1.2-1.5l.9-3.3A7.3,7.3,0,0,1,714,168l2.7,6.3Zm-7.8-6.3c1.5-1.8,3.6-2.7,6.6-2.7v.9a8.1,8.1,0,0,0-7.2,6l-.9,3.3a1.3,1.3,0,0,1-1.2.9A10.9,10.9,0,0,1,707.1,168.9ZM693.6,180c-1.2,1.2-1.8,1.8-2.7,1.8a1.9,1.9,0,0,1-1.5-2.1,3.4,3.4,0,0,0,1.2.6,2.1,2.1,0,0,0,2.4-1.5,2.8,2.8,0,0,1,1.2-1.8,1.3,1.3,0,0,1,1.2,0,1.6,1.6,0,0,1,.9,1.2A3.4,3.4,0,0,0,693.6,180Zm.3,9.9H696l-.3,1.5-1.8-.6Zm24.8,1.8a45.2,45.2,0,0,1-14.6,2.1c-5.7,0-11.1-.6-14.4-2.1a.7.7,0,0,1,.2-.9h.1l3,.9.3.3a65.2,65.2,0,0,0,21.6,0l.3-.3a16.8,16.8,0,0,0,3.2-.9.7.7,0,0,1,.9-.2.5.5,0,0,1,.1.8A.5.5,0,0,1,718.7,191.7Z" />
      </g>
    </a>
    <a href="#popup-tree" data-src="#popup-tree" data-fancybox>
      <g id="tree">
        <g id="circles-2" data-name="circles">
          <circle cx="874" cy="168" r="38" fill="#fff" opacity="0.5" />
          <circle cx="874" cy="168" r="30" fill="#fff" opacity="0.5" />
          <circle cx="874" cy="168" r="22" fill="#fff" />
        </g>
        <circle id="bg-icon-2" data-name="bg-icon" cx="874" cy="168" r="15" fill="#cbe1bf" />
        <path id="symbol-2" data-name="symbol" d="M883.6,158.6a9.5,9.5,0,0,0-10.7-8.1,9.8,9.8,0,0,0-5.2,2.5,9.1,9.1,0,0,0-3,5.6,9.8,9.8,0,0,0-4.9,12.7,9.6,9.6,0,0,0,8.8,5.7,8.9,8.9,0,0,0,4.5-1.2v9.8h2.1v-9.8a9.5,9.5,0,0,0,12.8-4.3,9.7,9.7,0,0,0-4.4-12.9ZM879.8,175a7.6,7.6,0,0,1-4.6-1.6v-6.3l4.6-2.4-1-1.9-3.6,1.9v-4h-2.1v8.6l-3.6-1.9-.9,1.8,4.5,2.5v1.7a7.5,7.5,0,0,1-8.6-12.2,5.5,5.5,0,0,1,1.5-.8l.6-.3v-.6a7.5,7.5,0,0,1,7.5-7,7.4,7.4,0,0,1,7.4,7v.6l.6.3a7.5,7.5,0,0,1-2.5,14.6Z" />
      </g>
    </a>
    <a href="#popup-car" data-src="#popup-car" data-fancybox>
      <g id="car">
        <g id="circles-3" data-name="circles">
          <circle cx="628" cy="609" r="38" fill="#fff" opacity="0.5"/>
          <circle cx="628" cy="609" r="30" fill="#fff" opacity="0.5"/>
          <circle cx="628" cy="609" r="22" fill="#fff"/>
        </g>
        <circle id="bg-icon-3" data-name="bg-icon" cx="628" cy="609" r="15" fill="#bfcde1"/>
        <g id="symbol-3" data-name="symbol">
          <path d="M642.8,605.8l-.7-.7-2.5-6.6a2.9,2.9,0,0,0-2.6-1.9H619.5a2.9,2.9,0,0,0-2.7,1.9l-2.4,6.5-1,.9a4.1,4.1,0,0,0-1.4,3v9.6a2.9,2.9,0,0,0,2.9,2.9h1.8a2.9,2.9,0,0,0,2.8-2.9v-1.4h17v1.4a2.9,2.9,0,0,0,2.8,2.9h1.8a2.9,2.9,0,0,0,2.9-2.9v-9.8a4,4,0,0,0-1.2-2.9Zm-24.7-6.9a1.6,1.6,0,0,1,1.4-.9H637a1.7,1.7,0,0,1,1.4.9l2.1,5.8h-1.6a4.7,4.7,0,0,0-9.3,0H616Zm19.4,5.8H631a3.3,3.3,0,0,1,3.9-2.6A3.5,3.5,0,0,1,637.5,604.7Zm-19.3,13.8a1.5,1.5,0,0,1-1.5,1.5h-1.8a1.4,1.4,0,0,1-1.5-1.5v-1.8a2.4,2.4,0,0,0,1.5.4h3.3v1.4Zm24.4,0a1.4,1.4,0,0,1-1.5,1.5h-1.8a1.6,1.6,0,0,1-1.5-1.5v-1.4h3.3a2.4,2.4,0,0,0,1.5-.4v1.8Zm-1.5-2.7H614.9a1.5,1.5,0,0,1-1.5-1.5h0v-5.4a2.3,2.3,0,0,1,.9-1.9h0l.9-.8h25.9l.7.7h0a2.7,2.7,0,0,1,.8,1.9v5.6h0a1.5,1.5,0,0,1-1.5,1.5Z"/>
          <path d="M621,608.8h-5.1a.7.7,0,0,0-.7.7V613a.7.7,0,0,0,.7.7H621a.7.7,0,0,0,.7-.7v-3.5A.7.7,0,0,0,621,608.8Zm-.7,3.6h-3.7v-2.2h3.7Zm19.8-3.6H635a.7.7,0,0,0-.7.7V613a.7.7,0,0,0,.7.7h5.1a.7.7,0,0,0,.7-.7v-3.5A.7.7,0,0,0,640.1,608.8Zm-.7,3.6h-3.7v-2.2h3.7Zm-8.1-.7h-6.6a.7.7,0,0,0-.7.7.7.7,0,0,0,.7.6h6.6a.7.7,0,0,0,.7-.6A.7.7,0,0,0,631.3,611.7Zm0-2.2h-6.6a.8.8,0,0,0-.7.7.7.7,0,0,0,.7.7h6.6a.7.7,0,0,0,.7-.7A.8.8,0,0,0,631.3,609.5Z"/>
        </g>
      </g>
    </a>
    <a href="#popup-bench" data-src="#popup-bench" data-fancybox>
      <g id="bench">
        <g id="circles-4" data-name="circles">
          <circle cx="786" cy="340" r="38" fill="#fff" opacity="0.5"/>
          <circle cx="786" cy="340" r="30" fill="#fff" opacity="0.5"/>
          <circle cx="786" cy="340" r="22" fill="#fff"/>
        </g>
        <circle id="bg-icon-4" data-name="bg-icon" cx="786" cy="340" r="15" fill="#bfcde1"/>
        <g id="symbol-4" data-name="symbol">
          <path d="M775.5,330a.5.5,0,0,0,0-1H775a.5.5,0,0,0,0,1Zm21,0h.5a.5.5,0,0,0,0-1h-.5a.5.5,0,0,0,0,1Z"/>
          <path d="M800,341h-2.5v-2h1a.9.9,0,0,0,1-1v-3a.9.9,0,0,0-1-1h-1v-2h1a.9.9,0,0,0,1-1v-3a.9.9,0,0,0-1-1h-1v-1a.9.9,0,0,0-1-1h-2a.9.9,0,0,0-1,1v1h-15v-1a.9.9,0,0,0-1-1h-2a.9.9,0,0,0-1,1v1h-1a.9.9,0,0,0-1,1v3a1,1,0,0,0,1,1h1v2h-1a.9.9,0,0,0-1,1v3a1,1,0,0,0,1,1h1v2H772a.9.9,0,0,0-1,1v3a1,1,0,0,0,1,1v7a2,2,0,0,0,4,0v-7h1v5a2,2,0,0,0,4,0v-5h10v5a2,2,0,0,0,4,0v-5h1v7a2,2,0,0,0,4,0v-7a.9.9,0,0,0,1-1v-3A.9.9,0,0,0,800,341Zm-3.5,0h-2v-2h2Zm-18,0v-2h15v2Zm18-7h-2v-2h2Zm-18,0v-2h15v2Zm16-8h2v1h-2Zm-19,0h2v1h-2Zm-2,2h25v3h-25Zm2,4h2v2h-2Zm-2,3h25v3h-25Zm2,4h2v2h-2Zm-.5,14a1,1,0,0,1-2,0v-7h2Zm5-2a1,1,0,0,1-2,0v-5h2Zm14,0a1,1,0,0,1-2,0v-5h2Zm5,2a1,1,0,0,1-2,0v-7h2Zm-27-8v-3h28v3Z"/>
          <path d="M775.5,337a.5.5,0,0,0,0-1H775a.5.5,0,0,0,0,1Zm21,0h.5a.5.5,0,0,0,0-1h-.5a.5.5,0,0,0,0,1Z"/>
        </g>
      </g>
    </a>
    <a href="#popup-cctv-camera" data-src="#popup-cctv-camera" data-fancybox>
      <g id="cctv-camera">
        <g id="circles-5" data-name="circles">
          <circle cx="387" cy="229" r="38" fill="#fff" opacity="0.5" />
          <circle cx="387" cy="229" r="30" fill="#fff" opacity="0.5" />
          <circle cx="387" cy="229" r="22" fill="#fff" />
        </g>
        <circle id="bg-icon-5" data-name="bg-icon" cx="387" cy="229" r="15" fill="#e1bfd8" />
        <g id="symbol-5" data-name="symbol">
          <path d="M402.7,227.7l-18.1-10.3a3.3,3.3,0,0,0-4.2,1l-3.5,5a2.8,2.8,0,0,0,.6,4l.3.2,3.8,2.1-.7,1a2.7,2.7,0,0,0,0,3.4l-1,1.6H375v-2a.7.7,0,0,0-.7-.7h-2.6a.7.7,0,0,0-.7.7v6.6a.7.7,0,0,0,.7.7h2.6a.7.7,0,0,0,.7-.7v-.6h4.9a4.2,4.2,0,0,0,3.4-1.8l1.1-1.7h.6a3.1,3.1,0,0,0,2.6-1.4l.7-1.3,5.7,3.3a.6.6,0,0,0,.9-.3h0l.5-1h.3a4.6,4.6,0,0,0,4.6-4.7v-.9l2.3-1.2a.6.6,0,0,0,.3-.9Zm-29,12h-1.4v-5.4h1.4Zm8.4-2.6a2.5,2.5,0,0,1-2.2,1.2H375V237h4.9a1.7,1.7,0,0,0,1.2-.6l.8-1.4,1.2.7Zm4.3-2.9a1.7,1.7,0,0,1-2.3.5l-1.7-1a1.6,1.6,0,0,1-.5-2.1h.1l.8-1.1,4.4,2.6Zm7.7,1.2-15.7-9a1.6,1.6,0,0,1-.5-2.2h0l1.7-2.4,16.5,9.5Zm2-1.1,1.4-2.8,1.5-.8v.3A3.3,3.3,0,0,1,396.1,234.3Zm.9-4.1-16.6-9.6,1-1.5a1.9,1.9,0,0,1,2.5-.5l17,9.7Z" />
          <circle cx="387" cy="229" r="0.7" />
        </g>
      </g>
    </a>
    <a href="#popup-window" data-src="#popup-window" data-fancybox>
      <g id="window">
        <g id="circles-6" data-name="circles">
          <circle cx="357" cy="100" r="38" fill="#fff" opacity="0.5" />
          <circle cx="357" cy="100" r="30" fill="#fff" opacity="0.5" />
          <circle cx="357" cy="100" r="22" fill="#fff" />
        </g>
        <circle id="bg-icon-6" data-name="bg-icon" cx="357" cy="100" r="15" fill="#e1bfd8" />
        <g id="symbol-6" data-name="symbol">
          <path d="M372,88V85H342v3h1v24h-1v3h30v-3h-1V88Zm-29-2h28v1H343Zm28,28H343v-1h28Zm-1-2H344V88h26Z" />
          <path d="M356.5,100.5H345V111h11.5Zm-1,9.5H346v-8.5h9.5Zm13.5-9.5H357.5V111H369Zm-1,9.5h-9.5v-8.5H368Zm1-21H357.5V99.5H369Zm-1,9.5h-9.5V90H368ZM356.5,89H345V99.5h11.5Zm-1,9.5H346V90h9.5Z" />
          <path d="M348.5,94.5h.3l2-2a.5.5,0,0,0,.1-.7.5.5,0,0,0-.7-.1.1.1,0,0,0-.1.1l-2,2a.5.5,0,0,0,0,.7Zm0,2.5h.3l1-1a.5.5,0,0,0,.1-.7.5.5,0,0,0-.7-.1.1.1,0,0,0-.1.1l-1,1a.5.5,0,0,0,0,.7Zm1.6-2.8a.4.4,0,0,0-.1.3c0,.2,0,.3.1.4h.7a.5.5,0,0,0,.2-.4l-.2-.3A.5.5,0,0,0,350.1,94.2Zm1-.3a.5.5,0,0,0,.7,0l1.5-1.5a.5.5,0,0,0,.1-.7.5.5,0,0,0-.7-.1.1.1,0,0,0-.1.1l-1.5,1.5A.5.5,0,0,0,351.1,93.9Zm9.9.6h.3l2-2a.5.5,0,0,0,.1-.7.5.5,0,0,0-.7-.1.1.1,0,0,0-.1.1l-2,2a.5.5,0,0,0,0,.7Zm0,2.5h.3l1-1a.5.5,0,0,0,.1-.7.5.5,0,0,0-.7-.1.1.1,0,0,0-.1.1l-1,1a.5.5,0,0,0,0,.7Zm1.6-2.8a.4.4,0,0,0-.1.3c0,.2,0,.3.1.4h.7a.5.5,0,0,0,.2-.4l-.2-.3A.5.5,0,0,0,362.6,94.2Zm1-.3a.5.5,0,0,0,.7,0l1.5-1.5a.5.5,0,0,0,.1-.7.5.5,0,0,0-.7-.1.1.1,0,0,0-.1.1l-1.5,1.5A.5.5,0,0,0,363.6,93.9ZM361,106h.3l2-2a.5.5,0,0,0,.1-.7.5.5,0,0,0-.7-.1.1.1,0,0,0-.1.1l-2,2a.5.5,0,0,0,0,.7Zm0,2.5h.3l1-1a.5.5,0,0,0,.1-.7.5.5,0,0,0-.7-.1.1.1,0,0,0-.1.1l-1,1a.5.5,0,0,0,0,.7Zm1.6-2.8a.4.4,0,0,0-.1.3c0,.2,0,.3.1.4h.7a.5.5,0,0,0,.2-.4l-.2-.3A.5.5,0,0,0,362.6,105.7Zm1-.3a.5.5,0,0,0,.7,0l1.5-1.5a.5.5,0,0,0,.1-.7.5.5,0,0,0-.7-.1.1.1,0,0,0-.1.1l-1.5,1.5A.5.5,0,0,0,363.6,105.4Zm-15.1.6h.3l2-2a.5.5,0,0,0,.1-.7.5.5,0,0,0-.7-.1.1.1,0,0,0-.1.1l-2,2a.5.5,0,0,0,0,.7Zm0,2.5h.3l1-1a.5.5,0,0,0,.1-.7.5.5,0,0,0-.7-.1.1.1,0,0,0-.1.1l-1,1a.5.5,0,0,0,0,.7Zm1.6-2.8a.4.4,0,0,0-.1.3c0,.2,0,.3.1.4h.7a.5.5,0,0,0,.2-.4l-.2-.3A.5.5,0,0,0,350.1,105.7Zm1-.3a.5.5,0,0,0,.7,0l1.5-1.5a.5.5,0,0,0,.1-.7.5.5,0,0,0-.7-.1.1.1,0,0,0-.1.1l-1.5,1.5A.5.5,0,0,0,351.1,105.4Z" />
        </g>
      </g>
    </a>
  </g>
</svg>
