<svg xmlns="http://www.w3.org/2000/svg" xmlns:xlink="http://www.w3.org/1999/xlink"><symbol id="001-user" viewBox="0 0 469.3 469.3"><circle cx="170.7" cy="181.3" r="85.3"/><path d="M336.2 103.8l-36 36c18 25.3 18 57.7 0 83l36 36c43.1-43.2 43.1-108.2 0-155zM170.7 309.3C113.7 309.3 0 338 0 394.7v42.6h341.3v-42.6c0-56.8-113.7-85.4-170.6-85.4z"/><path d="M407 32l-34.8 34.8c59 64.5 59 161.1-.1 229l34.8 34.9c83.2-83 83.2-212.4 0-298.7z"/></symbol><symbol id="002-wifi-signal" viewBox="0 0 414.4 414.4"><path d="M349.9 132.8h-37a128.9 128.9 0 0 0-105.7-54.9c-42.3 0-81.4 20.4-105.7 54.9h-37C28.9 132.8 0 161.7 0 197.3v19.9c0 35.5 29 64.4 64.5 64.4h37a128.9 128.9 0 0 0 105.7 54.9 129 129 0 0 0 105.6-54.8h37c35.7 0 64.6-29 64.6-64.6v-19.9c0-35.5-29-64.4-64.5-64.4zm-183 50.4l-20.3 56.1c-.3 1-1.3 1.7-2.3 1.7h-7.6c-1-.1-2-.8-2.3-1.8l-12-35.6-12 35.6c-.3 1-1.2 1.7-2.3 1.7l-7.5.1c-1.1 0-2-.6-2.4-1.6l-20.7-56.2A2.5 2.5 0 0 1 79 180l7.5-2.8c1.3-.4 2.7.2 3.2 1.5l14.3 38.9 12.3-36.4c.3-1 1.3-1.7 2.4-1.7h7.6c1 0 2 .6 2.3 1.7l12.2 36.2 14-38.6a2.5 2.5 0 0 1 3.1-1.5l7.6 2.7c1.2.5 2 1.9 1.5 3.2zm18.3 53c0 1.5-1.2 2.6-2.5 2.6h-8a2.5 2.5 0 0 1-2.5-2.5V200c0-1.3 1-2.5 2.5-2.5h8c1.3 0 2.5 1.2 2.5 2.5v36.2zm-6.5-45.2a7.5 7.5 0 1 1 0-15 7.5 7.5 0 0 1 0 15zm219.7 26.1a48.5 48.5 0 0 1-48.5 48.5l-115 .1h-26.6c5-5.2 8.6-11.7 8.6-20v-49.4a47.6 47.6 0 0 1 47.5-47.6H350a48.5 48.5 0 0 1 48.5 48.5v20z"/><path d="M294 173.4h-36.6a2.5 2.5 0 0 0-2.5 2.5v60.9c0 1.3 1 2.5 2.5 2.5h8c1.3 0 2.5-1.2 2.5-2.5V215h21c1.3 0 2.4-1.2 2.4-2.5v-8c0-1.4-1-2.5-2.5-2.5h-21v-15.6H294c1.4 0 2.5-1.1 2.5-2.5v-8c0-1.4-1-2.5-2.5-2.5zM317.6 198.5h-8a2.5 2.5 0 0 0-2.5 2.5v36.2c0 1.4 1 2.5 2.5 2.5h8c1.4 0 2.5-1.1 2.5-2.5V201c0-1.4-1.1-2.5-2.5-2.5zM313.6 176a7.5 7.5 0 1 0 0 15 7.5 7.5 0 0 0 0-15z"/></symbol><symbol id="003-logout" viewBox="0 0 46.8 46.8"><path d="M46.6 33.7l-1.2-2.2c-.2-.4-.7-.7-1.2-.7H27.7a2 2 0 0 1-1.2-.5l-1-1.1a2 2 0 0 0-1.2-.6h-5.7l-.2-2.8a3.7 3.7 0 0 0-4.5-3L3.9 25A5.2 5.2 0 0 0 0 30v9c0 2.1 1.8 4.3 3.9 4.8l10 2.2c2.1.5 4.2-.9 4.5-3l.2-2.8h3.7c.4 0 1-.3 1.2-.6l1-1a2 2 0 0 1 1.3-.6h1.1c.4 0 1-.3 1.1-.7l.2-.3c.1-.4.6-.7 1-.7h.7c.5 0 .9.3 1 .7v.2c.1.4.6.8 1 .8s.8-.3 1-.7l.1-.3c.2-.4.7-.7 1.1-.7h.7c.4 0 .9.3 1 .7v.2c.1.4.6.8 1 .8h7.4c.5 0 1-.3 1.2-.7l1.2-2.2c.2-.4.2-1 0-1.3zM7 40.4c-1.9 0-3.4-2.7-3.4-6C3.5 31 5 28.2 7 28.2c1.8 0 3.3 2.7 3.3 6 0 3.4-1.5 6-3.3 6zM17.7 21.2l5.8-5.7 5.8 5.7 4.4-4.4L28 11l5.7-5.8L29.3.8l-5.8 5.8L17.7.8l-4.4 4.4L19 11l-5.7 5.8z"/></symbol><symbol id="baseline-view_module-24px" viewBox="0 0 24 24">
  <path d="M4 11h5V5H4v6zm0 7h5v-6H4v6zm6 0h5v-6h-5v6zm6 0h5v-6h-5v6zm-6-7h5V5h-5v6zm6-6v6h5V5h-5z"/>
  <path fill="none" d="M0 0h24v24H0z"/>
</symbol><symbol id="baseline-view_stream-24px" viewBox="0 0 24 24">
  <path d="M4 18h17v-6H4v6zM4 5v6h17V5H4z"/>
  <path fill="none" d="M0 0h24v24H0z"/>
</symbol><symbol id="facebook" viewBox="0 0 50 50"><path d="M30 26l1-5h-5v-4c0-1.5.8-2 3-2h2v-5h-4c-4 0-7 2.4-7 7v4h-5v5h5v14h6V26h4z"/><path d="M25 1C11.7 1 1 11.7 1 25s10.7 24 24 24 24-10.7 24-24S38.3 1 25 1zm0 43C14.5 44 6 35.5 6 25S14.5 6 25 6s19 8.5 19 19-8.5 19-19 19z"/></symbol><symbol id="favorite" viewBox="0 0 455 455">
  <path d="M326.6 10.3c-38.7 0-75 17.6-99.1 47A128.4 128.4 0 0 0 0 138.7c0 55.4 33 119.5 98.2 190.6a946 946 0 0 0 120.3 108.6l9 6.8 9-6.8a946 946 0 0 0 120.3-108.6c65.1-71 98.2-135.2 98.2-190.6C455 68 397.4 10.3 326.6 10.3z"/>
</symbol><symbol id="feat-01" viewBox="0 0 3.49 3.76">
 <g id="&#x421;&#x43B;&#x43E;&#x439;_x0020_1">
  <metadata id="CorelCorpID_0Corel-Layer"/>
  <path fill-rule="evenodd" fill="#E94A7E" d="M2.81 3.13l0 -0.51c0.03,-0.02 0.07,-0.04 0.11,-0.06l0.33 -0.19 0 0.51c-0.04,0.02 -0.07,0.04 -0.11,0.06l-0.22 0.12c-0.02,0.01 -0.1,0.06 -0.11,0.07zm-1.08 -3.13c0.05,0 0.05,0 0.1,0.03l0.23 0.13c0.02,0.01 0.04,0.02 0.06,0.03 0.02,0.01 0.04,0.03 0.06,0.04l0.29 0.16c0.04,0.03 0.08,0.06 0.08,0.11 0,0.06 0,0.12 0,0.18 0.05,0.03 0.27,0.15 0.33,0.19 0.1,0.06 0.22,0.12 0.32,0.18 0.08,0.05 0.1,0.06 0.1,0.16l0 0.77c0.02,0.01 0.04,0.02 0.06,0.03 0.06,0.04 0.13,0.07 0.13,0.15l0 0.79c0,0.02 -0.01,0.05 -0.02,0.06 -0.02,0.04 -0.1,0.07 -0.14,0.1 -0.07,0.04 -0.14,0.08 -0.21,0.12 -0.07,0.04 -0.14,0.08 -0.21,0.12 -0.02,0.01 -0.03,0.02 -0.05,0.03l-0.1 0.06c-0.09,0.05 -0.14,0 -0.2,-0.04 -0.01,0 -0.02,-0.01 -0.03,-0.01 -0.04,-0.02 -0.04,-0.03 -0.06,-0.02l-0.13 0.08c-0.1,0.06 -0.23,0.12 -0.33,0.18l-0.17 0.1c-0.03,0.02 -0.04,0.02 -0.05,0.03 -0.11,0 -0.1,-0.01 -0.2,-0.06 -0.18,-0.11 -0.37,-0.21 -0.55,-0.32 -0.04,-0.02 -0.03,-0.02 -0.05,-0.01l-0.06 0.03c-0.06,0.04 -0.11,0.09 -0.2,0.04 -0.08,-0.05 -0.17,-0.1 -0.26,-0.15l-0.18 -0.11c-0.01,0 -0.01,0 -0.02,-0.01 -0.04,-0.02 -0.07,-0.04 -0.11,-0.06l-0.07 -0.04c-0.01,-0.01 -0.02,-0.01 -0.03,-0.02 -0.03,-0.02 -0.06,-0.06 -0.06,-0.1l0 -0.79c0,-0.03 0.01,-0.05 0.02,-0.07 0.02,-0.02 0.03,-0.03 0.05,-0.04l0.12 -0.07 0 -0.77c0,-0.05 0,-0.08 0.03,-0.11 0.03,-0.03 0.19,-0.12 0.23,-0.14 0.03,-0.02 0.06,-0.03 0.09,-0.05l0.4 -0.23c0,-0.06 0,-0.13 0,-0.19 0,-0.05 0.04,-0.08 0.08,-0.1l0.12 -0.06c0.09,-0.06 0.2,-0.12 0.29,-0.17l0.18 -0.1c0.02,-0.01 0.09,-0.06 0.12,-0.06zm0.39 2.37c0.02,0 0.29,0.16 0.33,0.19l0.12 0.06 0 0.51c-0.02,0 -0.1,-0.06 -0.12,-0.06 -0.01,-0.01 -0.03,-0.02 -0.05,-0.04l-0.28 -0.15 0 -0.51zm-1.88 0c0.02,0.01 0.04,0.02 0.06,0.03l0.39 0.22 0 0.51c-0.02,-0.01 -0.02,-0.01 -0.03,-0.02l-0.36 -0.2c-0.01,-0.01 -0.02,-0.01 -0.03,-0.02 -0.01,0 -0.02,-0.01 -0.03,-0.01l0 -0.51zm0.69 0.76l0 -0.51c0.03,-0.02 0.18,-0.1 0.22,-0.12l0.16 -0.1c0.02,-0.01 0.05,-0.03 0.06,-0.03 0,0.16 0,0.34 0,0.49 0,0.01 0,0.02 -0.01,0.02 -0.01,0.01 -0.02,0.01 -0.03,0.02 -0.01,0 -0.01,0 -0.02,0.01l-0.14 0.08c-0.01,0.01 -0.02,0.01 -0.03,0.02l-0.16 0.09c-0.01,0.01 -0.02,0.01 -0.03,0.01 -0.01,0.01 -0.01,0.01 -0.02,0.02zm2.19 -0.97c0,0.01 -0.03,0.02 -0.05,0.03l-0.38 0.22c-0.01,0 -0.35,-0.2 -0.39,-0.22 -0.01,0 -0.01,-0.01 -0.02,-0.01 -0.01,-0.01 -0.02,-0.01 -0.03,-0.02 0,-0.01 0.04,-0.02 0.05,-0.03l0.38 -0.22c0.02,0 0.25,0.14 0.28,0.15 0.02,0.02 0.15,0.09 0.16,0.1zm-2.75 0c0.01,-0.01 0.09,-0.06 0.11,-0.06l0.33 -0.19 0.33 0.19c0.01,0.01 0.1,0.05 0.11,0.06 -0.02,0.01 -0.02,0.01 -0.03,0.02 -0.06,0.03 -0.4,0.23 -0.41,0.23 -0.01,0 -0.35,-0.2 -0.41,-0.23 -0.01,-0.01 -0.02,-0.01 -0.03,-0.02l0 0zm0.07 -0.32l0 -0.59 0.44 -0.25c0.01,-0.01 0.02,-0.01 0.03,-0.02 0.01,-0.01 0.02,-0.02 0.03,-0.02l0 0.31c0,0.06 0,0.1 0.07,0.14l0.19 0.11c0.03,0.01 0.05,0.02 0.07,0.03l0.06 0.04c0.05,0.03 0.09,0.05 0.14,0.08l0.22 0.13c0.03,0.01 0.04,0.01 0.07,0.01 0.03,0 0.1,-0.05 0.13,-0.07 0.13,-0.07 0.27,-0.15 0.4,-0.22l0.19 -0.11c0.03,-0.02 0.04,-0.03 0.06,-0.05 0.01,-0.03 0.01,-0.04 0.01,-0.09l0 -0.31c0.11,0.06 0.26,0.15 0.38,0.22l0.13 0.07 0 0.59c-0.07,-0.04 -0.15,-0.09 -0.23,-0.13 -0.12,-0.07 -0.12,-0.1 -0.26,-0.02l-0.41 0.24c-0.01,0.01 -0.02,0.01 -0.03,0.02l-0.18 0.1c-0.04,0.02 -0.07,0.06 -0.07,0.1l0 0.8c0,0.08 0.08,0.11 0.16,0.16 0.01,0.01 0.19,0.1 0.2,0.11 -0.01,0.01 -0.05,0.03 -0.06,0.04 -0.03,0.01 -0.04,0.02 -0.06,0.03 -0.03,0.02 -0.37,0.21 -0.37,0.21 -0.01,0 -0.12,-0.06 -0.13,-0.07l-0.18 -0.1c-0.02,-0.01 -0.04,-0.02 -0.06,-0.04 -0.04,-0.02 -0.08,-0.04 -0.12,-0.07 0,0 0.03,-0.02 0.04,-0.03l0.25 -0.14c0.03,-0.02 0.06,-0.05 0.06,-0.1l0 -0.8c0,-0.04 -0.03,-0.08 -0.06,-0.1l-0.42 -0.23c-0.03,-0.03 -0.26,-0.16 -0.29,-0.17 -0.06,-0.02 -0.09,0.01 -0.13,0.04 -0.09,0.04 -0.19,0.11 -0.27,0.15zm1.43 -0.36l0 -0.51 0.33 -0.19c0.04,-0.02 0.07,-0.04 0.11,-0.06l0 0.51c-0.09,0.04 -0.24,0.14 -0.33,0.18l-0.11 0.07zm-0.69 -0.76c0.04,0.02 0.08,0.04 0.11,0.06 0.09,0.05 0.2,0.11 0.28,0.16l0.05 0.03 0 0.51c-0.01,-0.01 -0.2,-0.12 -0.22,-0.13 -0.07,-0.04 -0.15,-0.09 -0.22,-0.12l0 -0.51zm0.13 -0.21c0.01,-0.01 0.09,-0.05 0.11,-0.06l0.27 -0.16c0.01,-0.01 0.05,-0.03 0.06,-0.03l0.41 0.24c0.01,0 0.02,0 0.02,0.01 -0.01,0.01 -0.01,0.01 -0.02,0.02 -0.06,0.03 -0.41,0.23 -0.41,0.23 -0.01,0 -0.42,-0.24 -0.44,-0.25l0 0z"/>
 </g>
</symbol><symbol id="feat-02" viewBox="0 0 7.88 7">
 <g id="&#x421;&#x43B;&#x43E;&#x439;_x0020_1">
  <metadata id="CorelCorpID_0Corel-Layer"/>
  <path fill-rule="evenodd" clip-rule="evenodd" fill="#E94A7E" d="M1.65 6.83c0,-0.01 0,-0.03 0,-0.04l0 -0.18c0,-0.04 0.03,-0.07 0.07,-0.07l2.22 0 2.22 0c0.04,0 0.07,0.03 0.07,0.07l0 0.18c0,0.01 0,0.03 0,0.04l0 0.1c0,0.04 0.03,0.07 0.07,0.07l1.17 0c0.03,0 0.06,-0.03 0.06,-0.07 0,-0.54 0.1,-2.75 -0.08,-3.11l0.37 -0.03c0.08,-0.13 0.07,-0.45 0,-0.56 -0.08,-0.06 -0.85,-0.05 -0.93,-0.04 -0.1,0.02 -0.07,0 -0.16,0.09l-0.04 0.05c-0.06,-0.44 -0.32,-1.22 -0.82,-1.27 -0.33,-0.03 -1.13,-0.06 -1.93,-0.06 -0.8,0 -1.6,0.03 -1.93,0.06 -0.5,0.05 -0.76,0.83 -0.82,1.27l-0.04 -0.05c-0.09,-0.09 -0.06,-0.07 -0.17,-0.09 -0.07,-0.01 -0.84,-0.02 -0.92,0.04 -0.08,0.11 -0.08,0.43 0,0.56l0.37 0.03c-0.19,0.36 -0.09,2.57 -0.09,3.11 0,0.04 0.03,0.07 0.07,0.07l1.17 0c0.04,0 0.07,-0.03 0.07,-0.07l0 -0.1zm-0.32 -3.29c0.1,-0.05 0.18,-0.27 0.29,-0.45 0.42,-0.69 0.35,-0.61 1.51,-0.66 0.54,-0.02 2.45,-0.07 2.83,-0.12 -0.33,-0.14 -2.98,-0.09 -3.66,-0.05 -0.3,0.02 -0.41,0 -0.55,0.21 -0.15,0.24 -0.35,0.79 -0.42,1.07zm5.57 1.26c-0.5,-0.08 -0.58,-0.07 -1.07,0 -0.06,0.01 -0.12,0.05 -0.12,0.11l0 0.39c0,0.06 0.05,0.1 0.12,0.11 0.48,0.06 0.59,0.07 1.07,0 0.06,-0.01 0.12,-0.05 0.12,-0.11l0 -0.39c0,-0.06 -0.06,-0.1 -0.12,-0.11zm-0.25 1.17c-0.14,-0.01 -0.29,-0.01 -0.43,0 -0.08,0 -0.17,0.01 -0.29,0.02 -0.05,0 -0.09,0.01 -0.09,0.04l0 0.14c0,0.03 0.04,0.04 0.09,0.04 0.41,0.03 0.51,0.03 0.91,0 0.06,0 0.1,-0.01 0.1,-0.04l0 -0.14c0,-0.03 -0.04,-0.04 -0.1,-0.04 -0.07,-0.01 -0.13,-0.01 -0.19,-0.02zm-5.67 -1.17c0.49,-0.08 0.57,-0.07 1.07,0 0.06,0.01 0.12,0.05 0.12,0.11l0 0.39c0,0.06 -0.06,0.1 -0.12,0.11 -0.48,0.06 -0.59,0.07 -1.07,0 -0.06,-0.01 -0.12,-0.05 -0.12,-0.11l0 -0.39c0,-0.06 0.06,-0.1 0.12,-0.11zm0.25 1.17c0.13,-0.01 0.29,-0.01 0.43,0 0.08,0 0.17,0.01 0.28,0.02 0.06,0 0.1,0.01 0.1,0.04l0 0.14c0,0.03 -0.04,0.04 -0.1,0.04 -0.4,0.03 -0.5,0.03 -0.91,0 -0.05,0 -0.09,-0.01 -0.09,-0.04l0 -0.14c0,-0.03 0.04,-0.04 0.09,-0.04 0.08,-0.01 0.14,-0.01 0.2,-0.02z"/>
  <path fill="#E94A7E" d="M3.83 0.01c-0.99,0.38 -2.32,1.06 -3.38,1.5 -0.18,0.07 -0.39,0.12 -0.31,0.38 0.1,0.35 0.73,-0.04 0.96,-0.14l1.93 -0.86c0.16,-0.07 0.33,-0.14 0.5,-0.22 0.17,-0.08 0.34,-0.21 0.52,-0.14l3.38 1.5c0.21,0.06 0.4,-0.13 0.3,-0.33 -0.08,-0.15 -2.52,-1.17 -2.87,-1.33 -0.2,-0.09 -0.83,-0.43 -1.03,-0.36z"/>
 </g>
</symbol><symbol id="feat-03" viewBox="0 0 10.19 8.97">
 <g id="&#x421;&#x43B;&#x43E;&#x439;_x0020_1">
  <metadata id="CorelCorpID_0Corel-Layer"/>
  <path fill="#E94A7E" d="M2.02 0.67c0,0.1 0.21,0.66 0.25,0.79 0.08,0.23 0.08,0.6 0.12,0.68 0.03,0.05 0.09,0.1 0.15,0.12l-0.09 -1.26c0,-0.18 -0.04,-0.22 0.05,-0.37 0.06,-0.09 0.14,-0.15 0.28,-0.16 0.13,-0.01 0.3,-0.03 0.43,-0.03 0.29,0 0.52,-0.05 0.86,-0.05l0.2 0.68c0.03,0.04 0.83,0.61 0.86,0.66 0.02,0.04 0.04,0.26 0.04,0.32l3.75 -0.36c0.26,-0.04 0.7,-0.06 0.94,-0.09 0.1,-0.02 0.22,-0.03 0.33,-0.03 0,-0.39 0.04,-0.25 -0.27,-0.64 -0.05,-0.06 -0.09,-0.11 -0.14,-0.18 -0.21,-0.26 -0.13,-0.44 -0.32,-0.63 -0.2,-0.19 -0.49,-0.1 -0.78,-0.09 -0.05,0.01 -0.1,0 -0.16,0 -0.07,0.01 -0.06,0.02 -0.14,0.02l-0.6 0.04c-0.39,0 -0.8,0.06 -1.2,0.07l-1.02 0.07c-0.06,0 -0.11,-0.01 -0.16,0l-1.79 0.12c-0.08,0 -0.07,0.01 -0.14,0.02 -0.05,0 -0.1,-0.01 -0.16,0 -0.19,0.01 -1.07,0.05 -1.16,0.1 -0.06,0.04 -0.13,0.1 -0.13,0.2z"/>
  <path fill="#E94A7E" d="M0.2 8.93l3.2 0.04 -0.05 -2.67c0.08,0.02 0.16,0.06 0.23,0.09 0.41,0.15 0.84,0.28 1.28,0.35 0.58,0.1 1.1,0.09 1.65,-0.12 0.13,-0.04 0.26,-0.11 0.37,-0.18 0.21,-0.15 0.41,-0.33 0.55,-0.54 0.04,-0.06 0.06,-0.1 0.1,-0.17l0.09 -0.19c0.1,-0.21 0.22,-0.65 0.22,-0.88l-0.37 0c-0.06,0.66 -0.45,1.38 -1.1,1.61 -0.82,0.3 -1.84,0.06 -2.6,-0.25l-0.36 -0.16c-0.08,-0.04 -0.06,-0.03 -0.06,-0.14 -0.06,0.03 -0.36,0.18 -0.41,0.18 -0.42,0 -0.33,-0.32 -0.33,-0.89 0,-0.49 0.74,-0.26 0.74,-0.42l0 -0.09 -3.35 0c0,0.31 0.13,4.19 0.2,4.43z"/>
  <path fill="#E94A7E" d="M5.17 2.13l0 0.59c0,0.11 -0.1,0.17 -0.13,0.26l2.89 -0.34c0.25,-0.04 0.47,-0.05 0.72,-0.08l1.26 -0.15c0.11,-0.02 0.07,-0.01 0.14,-0.08 0.18,-0.17 0.14,-0.01 0.14,-0.67 -0.14,0.03 -0.44,0.04 -0.61,0.06 -0.29,0.04 -0.94,0.08 -1.26,0.12l-3.15 0.29z"/>
  <path fill="#E94A7E" d="M2.7 4.96l0 0.69c0,0.09 0.1,0.18 0.17,0.18 0.13,0 0.34,-0.14 0.46,-0.19 0.08,-0.03 1.56,-0.23 1.65,-0.25 0.37,-0.06 0.74,-0.12 1.11,-0.16 0.14,-0.02 0.17,-0.12 0.31,-0.32 0.05,-0.07 0.09,-0.12 0.14,-0.19 0.17,-0.23 0.13,-0.11 0.13,-0.52 -0.09,0 -0.17,0.02 -0.25,0.03 -0.09,0.02 -0.17,0.03 -0.26,0.04l-2.57 0.4c-0.18,0.03 -0.34,0.05 -0.51,0.08 -0.16,0.03 -0.38,0.02 -0.38,0.21z"/>
  <path fill="#E94A7E" d="M2.89 3.05c0.29,0 0.69,-0.03 0.9,-0.03l0.89 -0.05c0.13,-0.02 0.16,0 0.25,-0.07 0.15,-0.13 0.11,-0.2 0.11,-0.43 0,-0.25 -0.03,-0.45 -0.03,-0.69l-0.42 -0.3c0,0.19 0.01,0.31 0.01,0.5 0,0.18 0.06,0.28 -0.05,0.42 -0.15,0.17 -0.62,0.11 -0.88,0.15 -0.65,0.08 -0.61,-0.12 -0.62,-0.86 0,-0.1 -0.02,-0.12 -0.02,-0.23 0,-0.19 -0.03,-0.35 0.13,-0.45 0.1,-0.07 0.13,-0.05 0.28,-0.06l0.32 -0.02c0.11,0 0.18,-0.01 0.31,-0.01 -0.02,-0.11 -0.1,-0.34 -0.1,-0.41 -0.15,0 -0.37,0.01 -0.5,0.03 -0.66,0.09 -0.96,-0.14 -0.9,0.68 0.03,0.32 0.05,0.69 0.05,1.02l0.03 0.5c0.03,0.19 0.16,0.31 0.24,0.31z"/>
  <path fill="#E94A7E" d="M5.88 3.02l0.3 0.24c0.18,0.14 0.2,0.2 0.44,0.2 0.25,0 0.49,-0.05 0.72,-0.07 0.13,-0.01 0.95,-0.09 1.05,-0.13 0.13,-0.05 0.16,-0.08 0.24,-0.18l0.34 -0.45c-0.14,0 -0.6,0.07 -0.78,0.09l-2.31 0.3z"/>
  <path fill="#E94A7E" d="M6.95 3.55l0 0.6 1.15 0 0 -0.73c-0.2,0 -0.91,0.11 -1.15,0.13z"/>
  <path fill="#E94A7E" d="M6.85 4.41c0,0.09 0.05,0.14 0.14,0.14l1.08 0c0.21,0 0.21,-0.28 0,-0.28l-1.05 0c-0.1,0 -0.17,0.04 -0.17,0.14z"/>
 </g>
</symbol><symbol id="feat-04" viewBox="0 0 7.66 8.22">
 <g id="&#x421;&#x43B;&#x43E;&#x439;_x0020_1">
  <metadata id="CorelCorpID_0Corel-Layer"/>
  <path fill="#E94A7E" fill-rule="nonzero" d="M7.62 6.6l-2.43 -2.83 0 -1.68c0,-0.1 -0.08,-0.18 -0.17,-0.18 -0.1,0 -0.18,0.08 -0.18,0.18l0 0.25 -0.14 0 0 -1.99 0.07 0c0.09,0 0.17,-0.08 0.17,-0.17 0,-0.1 -0.08,-0.18 -0.17,-0.18l-4.59 0c-0.1,0 -0.18,0.08 -0.18,0.18 0,0.09 0.08,0.17 0.18,0.17l0.14 0 0 6.17 -0.14 0c-0.1,0 -0.18,0.08 -0.18,0.18 0,0.09 0.08,0.17 0.18,0.17l0.64 0c0.1,0 0.17,-0.08 0.17,-0.17 0,-0.1 -0.07,-0.18 -0.17,-0.18l-0.15 0 0 -6.17 1.54 0 0 1.99 -0.14 0 0 -0.25c0,-0.1 -0.08,-0.18 -0.17,-0.18 -0.1,0 -0.18,0.08 -0.18,0.18l0 4.46c0,0.1 0.08,0.18 0.18,0.18 0.09,0 0.17,-0.08 0.17,-0.18l0 -2.54 0.41 0 0 3.74c0,0.1 0.08,0.18 0.17,0.18l1.61 0c0.1,0 0.18,-0.08 0.18,-0.18l0 -3.74 0.4 0 0 2.62c0,0.1 0.08,0.18 0.18,0.18 0.09,0 0.17,-0.08 0.17,-0.18l0 -1 2.16 2.52c0.04,0.04 0.09,0.07 0.14,0.07 0.02,0 0.04,-0.01 0.06,-0.02 0.07,-0.02 0.11,-0.09 0.11,-0.16l0 -1.32c0,-0.04 -0.01,-0.08 -0.04,-0.12zm-5.06 -6.25l1.79 0 0 1.99 -1.79 0 0 -1.99zm-0.49 2.34l2.77 0 0 0.97 -2.77 0 0 -0.97zm0.76 3.21l0 -0.21 1.26 0 0 0.21 -1.26 0zm1.26 0.35l0 0.21 -1.26 0 0 -0.21 1.26 0zm-1.26 -0.91l0 -0.21 1.26 0 0 0.21 -1.26 0zm0 1.47l1.26 0 0 0.21 -1.26 0 0 -0.21zm1.26 -2.03l-1.26 0 0 -0.21 1.26 0 0 0.21zm-1.26 2.8l0 -0.21 1.26 0 0 0.21 -1.26 0zm1.26 -3.36l-1.26 0 0 -0.21 1.26 0 0 0.21zm3.22 3.35l-2.12 -2.47 0 -0.79 2.12 2.47 0 0.79z"/>
 </g>
</symbol><symbol id="feat-05" viewBox="0 0 103.36 104.65">
 <g id="&#x421;&#x43B;&#x43E;&#x439;_x0020_1">
  <metadata id="CorelCorpID_0Corel-Layer"/>
  <path fill="#E94A7E" fill-rule="nonzero" d="M45.54 61.54c0.18,0 0.36,-0.02 0.53,-0.07l12.62 -3.15c1.65,-0.41 2.23,-2.48 1.02,-3.69l-9.46 -9.45c-1.21,-1.21 -3.27,-0.64 -3.69,1.02l-3.15 12.61c-0.19,0.75 0.03,1.54 0.58,2.09 0.41,0.41 0.98,0.64 1.55,0.64z"/>
  <path fill="#E94A7E" fill-rule="nonzero" d="M101.44 8.9l-6.98 -6.98c-2.56,-2.56 -6.76,-2.56 -9.32,0l-32.07 32.07c-2.58,2.58 -2.58,6.75 0,9.33l6.97 6.97c2.58,2.58 6.76,2.58 9.33,0l32.07 -32.07c1.18,-1.19 1.86,-2.75 1.92,-4.42l0 -0.5c-0.06,-1.67 -0.74,-3.22 -1.92,-4.4z"/>
  <path fill="#E94A7E" fill-rule="nonzero" d="M64.4 60.69c-0.09,0.02 -0.16,0.07 -0.24,0.09l-16.39 4.1c-0.51,0.13 -1.06,0.2 -1.61,0.2 -1.73,0 -3.43,-0.71 -4.66,-1.93 -1.63,-1.63 -2.3,-4.03 -1.73,-6.27l4.09 -16.4c0.03,-0.08 0.08,-0.15 0.1,-0.22l-0.91 -0.92c-0.41,-0.41 -0.97,-0.64 -1.55,-0.64l-6.33 0 0 30.77 6.6 0c1.21,0 2.2,0.99 2.2,2.2 0,1.22 -0.98,2.2 -2.2,2.2l-6.6 0 0 6.6c0,1.21 -0.98,2.19 -2.2,2.19 -1.21,0 -2.19,-0.98 -2.19,-2.19l0 -6.6 -6.6 0c-1.21,0 -2.2,-0.98 -2.2,-2.2 0,-1.21 0.99,-2.2 2.2,-2.2l6.6 0 0 -30.77 -28.58 0c-1.21,0 -2.2,0.98 -2.2,2.2l0 28.57 10.99 0c1.21,0 2.2,0.99 2.2,2.2 0,1.22 -0.98,2.2 -2.2,2.2l-10.99 0 0 6.6c0,1.21 0.99,2.19 2.2,2.19l2.2 0 0 8.8 -2.2 0c-0.58,0 -1.14,0.23 -1.56,0.64 -0.41,0.41 -0.64,0.97 -0.64,1.56l0 8.79c0,1.21 0.99,2.2 2.2,2.2l28.58 0 0 -10.99c0,-1.22 0.98,-2.2 2.19,-2.2 1.22,0 2.2,0.98 2.2,2.2l0 10.99 28.58 0c1.21,0 2.2,-0.99 2.2,-2.2l0 -28.58 -10.99 0c-1.22,0 -2.2,-0.98 -2.2,-2.2 0,-1.21 0.98,-2.2 2.2,-2.2l10.99 0 0 -6.32c0,-0.58 -0.24,-1.14 -0.64,-1.55l-0.91 -0.91z"/>
 </g>
</symbol><symbol id="feat-first" viewBox="0 0 506.1 506.1"><g fill="#E94A7E">
  <path d="M250.1 2.5l-69.5 60.3 21 24.1L250 45l224 194v232.7h-128v32h160V224.3z"/><path d="M0 147.3l21.7 23.5a127.8 127.8 0 0 1 172.2 0l21.7-23.5a159.9 159.9 0 0 0-215.6 0z"/><path d="M151.8 219l21.8-23.4a96.1 96.1 0 0 0-131.6 0L63.8 219c25-22.6 63-22.6 88 0zM138.1 247.6h-64a48 48 0 0 0-48 48v160a48 48 0 0 0 48 48h64a48 48 0 0 0 48-48v-160a48 48 0 0 0-48-48zm16 208a16 16 0 0 1-16 16h-64a16 16 0 0 1-16-16v-160a16 16 0 0 1 16-16h64a16 16 0 0 1 16 16v160z"/><path d="M90.1 311.6h32v32h-32zM218.1 471.6h32v32h-32zM282.1 471.6h32v32h-32z"/>
</g></symbol><symbol id="instagram" viewBox="0 0 50 50"><path d="M34 12.6H15.6c-1.6 0-3 1.3-3 3v19c0 1.5 1.4 2.8 3 2.8h19c1.5 0 3-1.3 3-3v-19c-.2-1.4-2-2.7-3.4-2.8zm-9 8c2.5 0 4.5 2 4.5 4.4 0 2.5-2 4.5-4.5 4.5s-4.5-2-4.5-4.5 2-4.5 4.5-4.5zm9 11.8c0 1-.6 1.6-1.5 1.6H17.6c-1 0-1.6-.7-1.6-1.6V23h2c-.3.6-.4 1.2-.4 2 0 4 3.3 7.4 7.4 7.4s7.4-3.3 7.4-7.4c0-.7 0-1.4-.3-2h2v9.4zm0-15.6v2.5c0 .4-.3.8-.7.8h-2.5c-.4 0-.8-.3-.8-.7v-2.5c0-.5.4-.8.8-.8h2.5c.4 0 .8.3.8.8z"/><path d="M25 1C11.7 1 1 11.7 1 25s10.7 24 24 24 24-10.7 24-24S38.3 1 25 1zm0 43C14.5 44 6 35.5 6 25S14.5 6 25 6s19 8.5 19 19-8.5 19-19 19z"/></symbol><symbol id="left-arrow" viewBox="0 0 492 492">
  <path d="M464.3 207.4l.8.2H136l103.5-103.7c5-5.1 7.8-12 7.8-19.2 0-7.2-2.7-14-7.8-19l-16.1-16.2c-5-5-11.8-7.8-19-7.8-7.2 0-14 2.8-19 7.8L7.8 227C2.8 232 0 238.8 0 246c0 7.3 2.8 14 7.8 19.2l177.5 177.4c5 5 11.8 7.8 19 7.8 7.2 0 14-2.8 19-7.8l16-16.1a26.6 26.6 0 0 0 0-37.7L134.8 284.4h330a27.9 27.9 0 0 0 27.3-27.6V234a27.3 27.3 0 0 0-27.7-26.6z"/>
</symbol><symbol id="padlock" viewBox="0 0 402 402">
  <path d="M357.4 190.7c-5.3-5.3-11.7-8-19.4-8H329V128c0-35-12.6-65-37.7-90.2A123 123 0 0 0 201 0a123 123 0 0 0-90.2 37.7A123 123 0 0 0 73 127.9v54.8H64c-7.7 0-14.1 2.7-19.5 8-5.3 5.3-8 11.8-8 19.4v164.5c0 7.6 2.7 14 8 19.4 5.4 5.3 11.8 8 19.5 8h274c7.7 0 14.1-2.7 19.5-8 5.3-5.3 8-11.8 8-19.4V210c0-7.6-2.7-14-8-19.4zm-83.3-8H127.9V128c0-20.2 7.1-37.4 21.4-51.7A70.4 70.4 0 0 1 201 54.8c20.2 0 37.4 7.2 51.7 21.4A70.4 70.4 0 0 1 274 128v54.8z"/>
</symbol><symbol id="vk" viewBox="0 0 50 50"><path d="M26 34c1 0 1-1.4 1-2 0-1 1-2 2-2s2.7 1.7 4 3c1 1 1 1 2 1h3s2 0 2-2c0-.6-.7-1.7-3-4-2-2-3-1 0-5 1.8-2.5 3.2-4.7 3-5.3-.2-.6-5.3-1.6-6-.7-2 3-2.4 3.7-3 5-1 2-1 3-2 3s-1-2-1-3c0-3.3.5-5.6-1-6h-3c-1.6 0-3 1-3 1s-1.2 1-1 1c.3 0 2-.4 2 1v2s0 4-1 4-3-4-5-7c-.8-1.2-1-1-2-1h-3c-1 0-1 .6-1 1 2 5 3.4 8 7.2 12 3.5 3.7 5.8 4 7.8 4h1z"/><path d="M25 1C11.7 1 1 11.7 1 25s10.7 24 24 24 24-10.7 24-24S38.3 1 25 1zm0 43C14.5 44 6 35.5 6 25S14.5 6 25 6s19 8.5 19 19-8.5 19-19 19z"/></symbol></svg>