<svg xmlns="http://www.w3.org/2000/svg" width="36" height="45" viewBox="0 0 36 45"><title>district_museum</title><path d="M18,1.2a17,17,0,0,1,17,17c.1,10.6-13.7,19.2-17,25.5C15.2,37.5.9,29.1,1,18.3A17.1,17.1,0,0,1,18,1.2Z" fill="#e5b452" fill-rule="evenodd"/><path d="M7.9,11.9v3.3H9.1v8.3H7.9V27h20V23.5H26.7V15.2h1.2V11.9L17.9,7Zm2.3,3.3h1.2v8.3H10.2ZM22,23.5V15.2h1.2v8.3Zm-1.2,0H19.7V15.2h1.1Zm-2.3,0H17.3V15.2h1.2Zm-2.4,0H15V15.2h1.1Zm-2.3,0H12.6V15.2h1.2Zm12.9,2.3H9.1V24.7H26.7Zm-1.2-2.3H24.4V15.2h1.1ZM26.7,14H9.1V12.6l8.8-4.3,8.8,4.3Z" fill="#fff"/><path d="M16.1,11.1a1.8,1.8,0,1,0,1.8-1.8A1.8,1.8,0,0,0,16.1,11.1Zm2.4,0a.6.6,0,1,1-.6-.6A.6.6,0,0,1,18.5,11.1Z" fill="#fff"/></svg>