<svg xmlns="http://www.w3.org/2000/svg" width="36" height="45"><path d="M18 1.2a17 17 0 0 1 17 17c.1 10.6-13.7 19.2-17 25.5C15.2 37.5.9 29.1 1 18.3A17.1 17.1 0 0 1 18 1.2z" fill="#A6D3D7" fill-rule="evenodd"/><path d="M26.1 19l-2-.6-3.6-.4a6.8 6.8 0 0 1 .2-2.9 4.5 4.5 0 0 0 1.4-3.1 4.1 4.1 0 0 0-8.2 0 4.5 4.5 0 0 0 1.4 3.1 10.9 10.9 0 0 1 .3 1.7V18l-3.7.4-2 .6c-.6.4-.9.7-.9 1.2s.3.7.9 1.1l1.9.6a6.1 6.1 0 0 0 1.7 1.4v1.8a4.5 4.5 0 0 0 9 0v-2a3.3 3.3 0 0 0 1.4-1.2h.2l2-.6c.6-.4.9-.7.9-1.1s-.3-.8-.9-1.2zm-11.3-7a3.2 3.2 0 0 1 6.4 0 3.3 3.3 0 0 1-1.2 2.5l-.2.2c0 .1-.2 1-.3 2a5.4 5.4 0 0 0 .5 2.8l-2 .2-2-.2a5.2 5.2 0 0 0 .5-2.7c-.1-1.1-.3-2-.3-2.1l-.2-.2a3.3 3.3 0 0 1-1.2-2.5zm6.8 13.1a3.6 3.6 0 0 1-7.2 0v-1.4h.4V25a3.3 3.3 0 0 0 3.2 3.3 3.2 3.2 0 0 0 3.1-3.2v-1.4l.5-.2v1.6zm-5.9 0V24l2.2.2 2.3-.2v1.1a2.2 2.2 0 0 1-2.2 2.2 2.3 2.3 0 0 1-2.3-2.2zm6.2-2.7a8.4 8.4 0 0 1-4 .9 8.6 8.6 0 0 1-4.1-.9l-.5-.3a33.8 33.8 0 0 0 4.7.3l4.3-.2zm1.8-1.4a31 31 0 0 1-5.7.5 31 31 0 0 1-5.7-.5 6.6 6.6 0 0 1-2.4-.8c.1-.1.4-.5 2.4-.9l3-.4-.3.5a.4.4 0 0 0 0 .6c.1.2.8.6 3 .6s2.9-.4 3-.6a.4.4 0 0 0 0-.6l-.3-.5 3 .4c2 .4 2.3.8 2.4.9a6.6 6.6 0 0 1-2.4.8z" fill="#fff"/><path d="M16.2 12.1a2.7 2.7 0 0 1 .2-1 1.6 1.6 0 0 1 1.6-.9c.2 0 .5-.2.5-.4a.6.6 0 0 0-.5-.5 2.5 2.5 0 0 0-2.4 1.4 3.7 3.7 0 0 0-.3 1.3.5.5 0 0 0 .4.5.5.5 0 0 0 .5-.4z" fill="#fff"/></svg>
