<svg xmlns="http://www.w3.org/2000/svg" width="36" height="45" viewBox="0 0 36 45"><title>district_library</title><path d="M18,1.2a17,17,0,0,1,17,17c.1,10.6-13.7,19.2-17,25.5C15.2,37.5.9,29.1,1,18.3A17.1,17.1,0,0,1,18,1.2Z" fill="#8297b0" fill-rule="evenodd"/><path d="M28.3,11H26.7V9.4c0-.4-.2-.7-.6-.7a13.3,13.3,0,0,0-3.4.1A8.1,8.1,0,0,0,18,11.4a8.1,8.1,0,0,0-4.7-2.6,13.3,13.3,0,0,0-3.4-.1c-.4,0-.6.3-.6.7V11H7.7a.7.7,0,0,0-.7.7v14a.9.9,0,0,0,.3.6H8c0-.1,5.6-2,9.7-.1h.6c4.1-1.8,9.7,0,9.7.1h.7a.9.9,0,0,0,.3-.6v-14A.7.7,0,0,0,28.3,11ZM8.5,24.7V12.5h.8v9.8a1.4,1.4,0,0,0,.2.6.7.7,0,0,0,.6.1,9.1,9.1,0,0,1,5.6,1.2A17.1,17.1,0,0,0,8.5,24.7Zm8.8-1.2a8.7,8.7,0,0,0-4-1.8,8.2,8.2,0,0,0-2.1-.2h-.4V10.1h0c1.4-.1,4.8.1,6.5,2.8Zm1.4-10.6c1.7-2.7,5.1-2.9,6.5-2.8V21.5a12.4,12.4,0,0,0-2.5.2,8.7,8.7,0,0,0-4,1.8V12.9Zm1.6,11.3A9.1,9.1,0,0,1,25.9,23a.7.7,0,0,0,.6-.1,1.4,1.4,0,0,0,.2-.6V12.5h.8V24.7A17.1,17.1,0,0,0,20.3,24.2Z" fill="#fff"/></svg>