<svg xmlns="http://www.w3.org/2000/svg" viewBox="0 0 380.8 50.8"><title>about-project-text</title><path d="M12.3,47.5a24.1,24.1,0,0,1-9-9.2A25.9,25.9,0,0,1,0,25.3a26.9,26.9,0,0,1,3.2-13,23.8,23.8,0,0,1,9.1-9A25.9,25.9,0,0,1,25.5,0,26.4,26.4,0,0,1,38.7,3.3a22.9,22.9,0,0,1,9,9,25.9,25.9,0,0,1,3.3,13,25.9,25.9,0,0,1-3.3,13,22.8,22.8,0,0,1-9,9.2,26.4,26.4,0,0,1-13.2,3.3A26.4,26.4,0,0,1,12.3,47.5Zm22-6.7a15.4,15.4,0,0,0,5.9-6.5,18.7,18.7,0,0,0,2.1-9,19.3,19.3,0,0,0-2.1-9A14.4,14.4,0,0,0,34.3,10a17,17,0,0,0-8.8-2.3A16.7,16.7,0,0,0,16.7,10a15,15,0,0,0-5.9,6.3,19.3,19.3,0,0,0-2.1,9,18.7,18.7,0,0,0,2.1,9,16.8,16.8,0,0,0,5.9,6.5,17,17,0,0,0,8.8,2.3A17,17,0,0,0,34.3,40.8Z"/><path d="M75.4.9h39.2v49H106V8.8H83.9V49.9H75.4Z"/><path d="M126.4.9h18.8A17.7,17.7,0,0,1,154,3.1,14.7,14.7,0,0,1,159.7,9a16,16,0,0,1,1.9,7.7,15.3,15.3,0,0,1-1.9,7.6,14.6,14.6,0,0,1-5.7,5.6,18,18,0,0,1-8.9,2.1H134.9V49.9h-8.5Zm17.7,23.9c3,0,5.2-.8,6.7-2.4a8.2,8.2,0,0,0,2.3-5.8,8.1,8.1,0,0,0-2.4-5.9,8.5,8.5,0,0,0-6.3-2.3h-9.5V24.8Z"/><path d="M179.2,47.5a23.7,23.7,0,0,1-9.1-9.2,25.9,25.9,0,0,1-3.3-13,25.9,25.9,0,0,1,3.3-13,22.9,22.9,0,0,1,9-9A26.4,26.4,0,0,1,192.3,0a25.9,25.9,0,0,1,13.2,3.3,23.8,23.8,0,0,1,9.1,9,26.9,26.9,0,0,1,3.2,13,26.9,26.9,0,0,1-3.2,13,23.7,23.7,0,0,1-9.1,9.2,27.9,27.9,0,0,1-26.3,0Zm22-6.7a16.8,16.8,0,0,0,5.9-6.5,18.7,18.7,0,0,0,2.1-9,19.3,19.3,0,0,0-2.1-9,15.6,15.6,0,0,0-5.9-6.3,17.3,17.3,0,0,0-8.9-2.3,16.7,16.7,0,0,0-8.8,2.3,15.6,15.6,0,0,0-5.9,6.3,19.3,19.3,0,0,0-2.1,9,18.7,18.7,0,0,0,2.1,9,16.8,16.8,0,0,0,5.9,6.5,18.2,18.2,0,0,0,17.7,0Z"/><path d="M258.5,42.4v7.5H227.1V.9h30.8V8.4H235.6v13h19.5v7.3H235.6V42.4Z"/><path d="M304.7,49.6v.3h-10L276,28V49.9h-8.5V.9H276v22L293.5.9h9.7v.3l-19.3,24Z"/><path d="M341.9,8.8H328.1V49.9h-8.5V8.8H305.7V.9h36.2Z"/><path d="M380.8,42.4v7.5H349.3V.9h30.9V8.4H357.8v13h19.5v7.3H357.8V42.4Z"/></svg>