<svg xmlns="http://www.w3.org/2000/svg" viewBox="0 0 465 465">
  <path fill="#ffffff" d="M346.7 44.6C321.5 15 283.1 0 232.5 0s-89 15-114.2 44.6A128.4 128.4 0 0 0 89 127.4v210.2c0 18.1 3.8 53 29.2 82.8C143.5 450 181.9 465 232.5 465s89-15 114.2-44.6a128.4 128.4 0 0 0 29.2-82.8V127.4c0-18.1-3.8-53-29.2-82.8zM232.5 162a19 19 0 0 1-19-19v-40.7a19 19 0 0 1 38 0V143a19 19 0 0 1-19 19zm128.4 175.6c0 18.8-6.2 112.4-128.4 112.4s-128.4-93.6-128.4-112.4V127.4C104 109 110 19 225 15.1v54a34 34 0 0 0-26.5 33.2V143a34 34 0 0 0 26.5 33.2v61.6a7.5 7.5 0 1 0 15 0v-61.6a34 34 0 0 0 26.5-33.2v-40.7A34 34 0 0 0 240 69v-54c115 3.8 121 94 121 112.3v210.2z"/>
</svg>
