<svg xmlns="http://www.w3.org/2000/svg" viewBox="0 0 408.2 42.4"><path d="M5,9.6H37.6V50.4H30.5V16.1H12.1V50.4H5Z" transform="translate(-5 -8.8)"/><path d="M43,44.9a7.9,7.9,0,0,0,4.8-1.7,10,10,0,0,0,2.8-4.8,52.2,52.2,0,0,0,1.7-8.9L54.5,9.6H80.1V50.4H73V16.1H60.6L58.9,31.8a42.5,42.5,0,0,1-2.6,10.9,13.4,13.4,0,0,1-4.8,6A15.4,15.4,0,0,1,44,50.9Z" transform="translate(-5 -8.8)"/><path d="M126,50.2v.2h-7.4L115.3,43H96.1l-3.3,7.4H85.4L104.6,9.4h2.2ZM103,27.7l-4.5,9.7h14.4l-4.4-9.7c-1.1-2.5-2.1-4.8-2.8-6.9Q104.4,24.4,103,27.7Z" transform="translate(-5 -8.8)"/><path d="M131.3,9.6h7.1v17h19.8V9.6h7.1V50.4h-7.1V33.1H138.4V50.4h-7.1Z" transform="translate(-5 -8.8)"/><path d="M210.2,9.4v41h-7v-22c0-1.9,0-3.8.1-5.8l-4.6,5.2L177.4,50.6h-2.1V9.6h7v22c0,1.9,0,3.8-.1,5.7a65,65,0,0,1,4.7-5.3L208.1,9.4Z" transform="translate(-5 -8.8)"/><path d="M220.2,9.6h15.7a14.4,14.4,0,0,1,7.3,1.8,13,13,0,0,1,4.7,4.9,13.2,13.2,0,0,1,1.6,6.4,12.9,12.9,0,0,1-1.6,6.4,12.5,12.5,0,0,1-4.7,4.7,16,16,0,0,1-7.5,1.7h-8.4V50.4h-7.1ZM235,29.5a7.4,7.4,0,0,0,5.5-2,6.5,6.5,0,0,0,1.9-4.8,6.6,6.6,0,0,0-2-4.9,6.9,6.9,0,0,0-5.3-2h-7.8V29.5Z" transform="translate(-5 -8.8)"/><path d="M264.1,48.4a19.8,19.8,0,0,1-7.5-7.7,21.6,21.6,0,0,1-2.7-10.8,21.6,21.6,0,0,1,2.7-10.8,19.3,19.3,0,0,1,7.5-7.5,23,23,0,0,1,22,0,19.3,19.3,0,0,1,7.5,7.5,21.6,21.6,0,0,1,2.7,10.8,21.6,21.6,0,0,1-2.7,10.8,19.8,19.8,0,0,1-7.5,7.7,21.2,21.2,0,0,1-11,2.8A21.4,21.4,0,0,1,264.1,48.4Zm18.4-5.6a13.5,13.5,0,0,0,4.9-5.4,15.4,15.4,0,0,0,1.7-7.5,15.4,15.4,0,0,0-1.7-7.5,13.2,13.2,0,0,0-4.9-5.3,15.4,15.4,0,0,0-14.8,0,12.3,12.3,0,0,0-4.8,5.3,15.4,15.4,0,0,0-1.8,7.5,15.4,15.4,0,0,0,1.8,7.5,12.8,12.8,0,0,0,4.9,5.4,13.5,13.5,0,0,0,7.3,2A13.9,13.9,0,0,0,282.5,42.8Z" transform="translate(-5 -8.8)"/><path d="M332.5,33a10.7,10.7,0,0,1,1.8,6.1,10.5,10.5,0,0,1-1.7,5.9,10.3,10.3,0,0,1-4.5,4,15.3,15.3,0,0,1-6.6,1.4H304.1V9.6h16.2a14.7,14.7,0,0,1,6.4,1.4,10.4,10.4,0,0,1,4.3,3.7,9.9,9.9,0,0,1,1.6,5.6,9.7,9.7,0,0,1-1.3,5.1,9.3,9.3,0,0,1-3.5,3.6A10.9,10.9,0,0,1,332.5,33Zm-21.4-6.5h8.2a6.5,6.5,0,0,0,4.6-1.5,5.4,5.4,0,0,0,1.6-4.2,4.8,4.8,0,0,0-1.7-3.9,7,7,0,0,0-4.7-1.5h-8Zm14.2,16.4a5.8,5.8,0,0,0,1.8-4.5,5.7,5.7,0,0,0-1.8-4.4,6.3,6.3,0,0,0-4.7-1.7h-9.5V44.6h9.2A7.4,7.4,0,0,0,325.3,42.9Z" transform="translate(-5 -8.8)"/><path d="M372.8,50.2v.2h-8.3L348.9,32.2V50.4h-7.1V9.6h7.1V27.9L363.5,9.6h8.1v.2l-16.1,20Z" transform="translate(-5 -8.8)"/><path d="M413.2,9.4v41h-7.1v-22a57.2,57.2,0,0,1,.2-5.8l-4.7,5.2L380.3,50.6h-2.1V9.6h7.1v22c0,1.9-.1,3.8-.2,5.7,1.7-2,3.2-3.8,4.7-5.3L411.1,9.4Z" transform="translate(-5 -8.8)"/></svg>
