<svg xmlns="http://www.w3.org/2000/svg" viewBox="0 0 151.6 41.3"><path d="M40,9.6v41H37.2l-22-24-3.4-3.7c.1,2,.2,3.4.2,4.4V50.4H5V9.4H7.7L29,32.8c1.9,1.9,3.2,3.4,4.1,4.4-.1-2-.2-3.8-.2-5.5V9.6Z" transform="translate(-5 -9.4)"/><path d="M79.1,44.2v6.2H52.9V9.6H78.6v6.2H60V26.6H76.3v6.1H60V44.2Z" transform="translate(-5 -9.4)"/><path d="M85.3,50.3l14.4-21L86.5,9.7h8.1l5.7,8.6c1.4,2.1,2.6,4.1,3.7,5.9l3.6-6,5.6-8.5h8.1L108.2,29.3l14.3,21h-8.2l-6.8-10.2-3.6-5.8c-1.3,2.3-2.5,4.2-3.6,5.8L93.5,50.4H85.3Z" transform="translate(-5 -9.4)"/><path d="M156.6,16.1H145.1V50.4H138V16.1H126.4V9.6h30.2Z" transform="translate(-5 -9.4)"/></svg>
