<?xml version="1.0" encoding="UTF-8" standalone="no"?>
<!-- Created with Inkscape (http://www.inkscape.org/) -->

<svg
   xmlns:dc="http://purl.org/dc/elements/1.1/"
   xmlns:cc="http://creativecommons.org/ns#"
   xmlns:rdf="http://www.w3.org/1999/02/22-rdf-syntax-ns#"
   xmlns:svg="http://www.w3.org/2000/svg"
   xmlns="http://www.w3.org/2000/svg"
   version="1.1"
   width="23"
   height="29"
   id="svg3794">
  <defs
     id="defs3796" />
  <metadata
     id="metadata3799">
    <rdf:RDF>
      <cc:Work
         rdf:about="">
        <dc:format>image/svg+xml</dc:format>
        <dc:type
           rdf:resource="http://purl.org/dc/dcmitype/StillImage" />
        <dc:title></dc:title>
      </cc:Work>
    </rdf:RDF>
  </metadata>
  <g
     transform="translate(0,-1023.3622)"
     id="layer1">
    <path
       d="m -0.125,1030.2997 0,0.5 0,21.125 0,0.5 0.5,0 22.1875,0 0.5,0 0,-0.5 0,-21.125 0,-0.5 -0.5,0 -6.5,0 0,1 6,0 0,20.125 -21.1875,0 0,-20.125 6.0625,0 0,-1 -6.5625,0 -0.5,0 z"
       id="path3819"
       style="font-size:medium;font-style:normal;font-variant:normal;font-weight:normal;font-stretch:normal;text-indent:0;text-align:start;text-decoration:none;line-height:normal;letter-spacing:normal;word-spacing:normal;text-transform:none;direction:ltr;block-progression:tb;writing-mode:lr-tb;text-anchor:start;baseline-shift:baseline;color:#000000;fill:#d40000;fill-opacity:1;stroke:none;stroke-width:1px;marker:none;visibility:visible;display:inline;overflow:visible;enable-background:accumulate;font-family:Sans;-inkscape-font-specification:Sans" />
    <path
       d="m 11,-0.125 0,20.90625 -7.125,-7.75 -0.75,0.6875 7.90625,8.5625 a 0.50005,0.50005 0 0 0 0.0625,0.0625 l 0.03125,0.0625 a 0.50005,0.50005 0 0 0 0.0625,0.0625 0.50005,0.50005 0 0 0 0.03125,0 0.50005,0.50005 0 0 0 0.0625,0.03125 0.50005,0.50005 0 0 0 0.0625,0.03125 0.50005,0.50005 0 0 0 0.03125,0 0.50005,0.50005 0 0 0 0.0625,0.03125 0.50005,0.50005 0 0 0 0.125,0 0.50005,0.50005 0 0 0 0.0625,0 0.50005,0.50005 0 0 0 0.0625,-0.03125 0.50005,0.50005 0 0 0 0.1875,-0.15625 0.50005,0.50005 0 0 0 0.0625,-0.0625 l 0.03125,-0.03125 7.90625,-8.59375 -0.75,-0.65625 -7.125,7.75 0,-20.90625 -1,0 z"
       transform="translate(0,1023.3622)"
       id="path4331"
       style="font-size:medium;font-style:normal;font-variant:normal;font-weight:normal;font-stretch:normal;text-indent:0;text-align:start;text-decoration:none;line-height:normal;letter-spacing:normal;word-spacing:normal;text-transform:none;direction:ltr;block-progression:tb;writing-mode:lr-tb;text-anchor:start;baseline-shift:baseline;color:#000000;fill:#d40000;fill-opacity:1;stroke:none;stroke-width:1px;marker:none;visibility:visible;display:inline;overflow:visible;enable-background:accumulate;font-family:Sans;-inkscape-font-specification:Sans" />
  </g>
</svg>
