<svg xmlns="http://www.w3.org/2000/svg" width="36" height="45" viewBox="0 0 36 45"><title>district_palace_bmz</title><path d="M18,1.2a17,17,0,0,1,17,17c.1,10.6-13.7,19.2-17,25.5C15.2,37.5.9,29.1,1,18.3A17.1,17.1,0,0,1,18,1.2Z" fill="#9C9B9A" fill-rule="evenodd"/><path d="M26.2,15.4h-.5V13.7a1.8,1.8,0,0,0-1.8-1.8h-.7a5.3,5.3,0,0,0-4.6-4.7V6.6a.6.6,0,0,0-1.2,0v.6a5.3,5.3,0,0,0-4.6,4.7h-.7a1.8,1.8,0,0,0-1.8,1.8v1.7H9.8A1.8,1.8,0,0,0,8,17.2v8.2a.6.6,0,0,0,.6.6H27.4a.6.6,0,0,0,.6-.6V17.2A1.8,1.8,0,0,0,26.2,15.4Zm-4.1-2.3h1.8a.6.6,0,0,1,.6.6v1.7H22.1ZM18,8.4a4.1,4.1,0,0,1,4.1,3.5H13.9A4.1,4.1,0,0,1,18,8.4Zm2.9,4.7v2.3H18.6V13.1Zm-3.5,0v2.3H15.1V13.1Zm-5.9.6a.6.6,0,0,1,.6-.6h1.8v2.3H11.5Zm1.2,11.1H9.2V20.7a1.8,1.8,0,0,1,1.7-1.8,1.8,1.8,0,0,1,1.8,1.8Zm7.1,0H16.2V20.7a1.8,1.8,0,1,1,3.6,0Zm7,0H23.3V20.7a1.8,1.8,0,0,1,1.8-1.8,1.8,1.8,0,0,1,1.7,1.8Zm0-6.5a3.4,3.4,0,0,0-1.7-.5,3,3,0,0,0-3,2.9v4.1H20.9V20.7a2.9,2.9,0,0,0-5.8,0v4.1H13.9V20.7a3,3,0,0,0-3-2.9,3.4,3.4,0,0,0-1.7.5V17.2a.5.5,0,0,1,.6-.6H26.2a.5.5,0,0,1,.6.6Z" fill="#fff"/></svg>
