<svg xmlns="http://www.w3.org/2000/svg" viewBox="0 0 46.8 46.8"><path d="M46.6 33.7l-1.2-2.2c-.2-.4-.7-.7-1.2-.7H27.7a2 2 0 0 1-1.2-.5l-1-1.1a2 2 0 0 0-1.2-.6h-5.7l-.2-2.8a3.7 3.7 0 0 0-4.5-3L3.9 25A5.2 5.2 0 0 0 0 30v9c0 2.1 1.8 4.3 3.9 4.8l10 2.2c2.1.5 4.2-.9 4.5-3l.2-2.8h3.7c.4 0 1-.3 1.2-.6l1-1a2 2 0 0 1 1.3-.6h1.1c.4 0 1-.3 1.1-.7l.2-.3c.1-.4.6-.7 1-.7h.7c.5 0 .9.3 1 .7v.2c.1.4.6.8 1 .8s.8-.3 1-.7l.1-.3c.2-.4.7-.7 1.1-.7h.7c.4 0 .9.3 1 .7v.2c.1.4.6.8 1 .8h7.4c.5 0 1-.3 1.2-.7l1.2-2.2c.2-.4.2-1 0-1.3zM7 40.4c-1.9 0-3.4-2.7-3.4-6C3.5 31 5 28.2 7 28.2c1.8 0 3.3 2.7 3.3 6 0 3.4-1.5 6-3.3 6zM17.7 21.2l5.8-5.7 5.8 5.7 4.4-4.4L28 11l5.7-5.8L29.3.8l-5.8 5.8L17.7.8l-4.4 4.4L19 11l-5.7 5.8z"/></svg>
