<?xml version="1.0" encoding="UTF-8"?>
<!DOCTYPE svg PUBLIC "-//W3C//DTD SVG 1.1//EN" "http://www.w3.org/Graphics/SVG/1.1/DTD/svg11.dtd">
<!-- Creator: CorelDRAW 2017 -->
<svg xmlns="http://www.w3.org/2000/svg" xml:space="preserve" width="88px" height="95px" version="1.1" shape-rendering="geometricPrecision" text-rendering="geometricPrecision" image-rendering="optimizeQuality" fill-rule="evenodd" clip-rule="evenodd"
viewBox="0 0 7.66 8.22"
 xmlns:xlink="http://www.w3.org/1999/xlink">
 <g id="Слой_x0020_1">
  <metadata id="CorelCorpID_0Corel-Layer"/>
  <path fill="#E94A7E" fill-rule="nonzero" d="M7.62 6.6l-2.43 -2.83 0 -1.68c0,-0.1 -0.08,-0.18 -0.17,-0.18 -0.1,0 -0.18,0.08 -0.18,0.18l0 0.25 -0.14 0 0 -1.99 0.07 0c0.09,0 0.17,-0.08 0.17,-0.17 0,-0.1 -0.08,-0.18 -0.17,-0.18l-4.59 0c-0.1,0 -0.18,0.08 -0.18,0.18 0,0.09 0.08,0.17 0.18,0.17l0.14 0 0 6.17 -0.14 0c-0.1,0 -0.18,0.08 -0.18,0.18 0,0.09 0.08,0.17 0.18,0.17l0.64 0c0.1,0 0.17,-0.08 0.17,-0.17 0,-0.1 -0.07,-0.18 -0.17,-0.18l-0.15 0 0 -6.17 1.54 0 0 1.99 -0.14 0 0 -0.25c0,-0.1 -0.08,-0.18 -0.17,-0.18 -0.1,0 -0.18,0.08 -0.18,0.18l0 4.46c0,0.1 0.08,0.18 0.18,0.18 0.09,0 0.17,-0.08 0.17,-0.18l0 -2.54 0.41 0 0 3.74c0,0.1 0.08,0.18 0.17,0.18l1.61 0c0.1,0 0.18,-0.08 0.18,-0.18l0 -3.74 0.4 0 0 2.62c0,0.1 0.08,0.18 0.18,0.18 0.09,0 0.17,-0.08 0.17,-0.18l0 -1 2.16 2.52c0.04,0.04 0.09,0.07 0.14,0.07 0.02,0 0.04,-0.01 0.06,-0.02 0.07,-0.02 0.11,-0.09 0.11,-0.16l0 -1.32c0,-0.04 -0.01,-0.08 -0.04,-0.12zm-5.06 -6.25l1.79 0 0 1.99 -1.79 0 0 -1.99zm-0.49 2.34l2.77 0 0 0.97 -2.77 0 0 -0.97zm0.76 3.21l0 -0.21 1.26 0 0 0.21 -1.26 0zm1.26 0.35l0 0.21 -1.26 0 0 -0.21 1.26 0zm-1.26 -0.91l0 -0.21 1.26 0 0 0.21 -1.26 0zm0 1.47l1.26 0 0 0.21 -1.26 0 0 -0.21zm1.26 -2.03l-1.26 0 0 -0.21 1.26 0 0 0.21zm-1.26 2.8l0 -0.21 1.26 0 0 0.21 -1.26 0zm1.26 -3.36l-1.26 0 0 -0.21 1.26 0 0 0.21zm3.22 3.35l-2.12 -2.47 0 -0.79 2.12 2.47 0 0.79z"/>
 </g>
</svg>
