<?xml version="1.0" encoding="UTF-8"?>
<!DOCTYPE svg PUBLIC "-//W3C//DTD SVG 1.1//EN" "http://www.w3.org/Graphics/SVG/1.1/DTD/svg11.dtd">
<!-- Creator: CorelDRAW 2017 -->
<svg xmlns="http://www.w3.org/2000/svg" xml:space="preserve" width="106px" height="95px" version="1.1" shape-rendering="geometricPrecision" text-rendering="geometricPrecision" image-rendering="optimizeQuality" fill-rule="evenodd" clip-rule="evenodd"
viewBox="0 0 7.88 7"
 xmlns:xlink="http://www.w3.org/1999/xlink">
 <g id="Слой_x0020_1">
  <metadata id="CorelCorpID_0Corel-Layer"/>
  <path fill-rule="evenodd" clip-rule="evenodd" fill="#E94A7E" d="M1.65 6.83c0,-0.01 0,-0.03 0,-0.04l0 -0.18c0,-0.04 0.03,-0.07 0.07,-0.07l2.22 0 2.22 0c0.04,0 0.07,0.03 0.07,0.07l0 0.18c0,0.01 0,0.03 0,0.04l0 0.1c0,0.04 0.03,0.07 0.07,0.07l1.17 0c0.03,0 0.06,-0.03 0.06,-0.07 0,-0.54 0.1,-2.75 -0.08,-3.11l0.37 -0.03c0.08,-0.13 0.07,-0.45 0,-0.56 -0.08,-0.06 -0.85,-0.05 -0.93,-0.04 -0.1,0.02 -0.07,0 -0.16,0.09l-0.04 0.05c-0.06,-0.44 -0.32,-1.22 -0.82,-1.27 -0.33,-0.03 -1.13,-0.06 -1.93,-0.06 -0.8,0 -1.6,0.03 -1.93,0.06 -0.5,0.05 -0.76,0.83 -0.82,1.27l-0.04 -0.05c-0.09,-0.09 -0.06,-0.07 -0.17,-0.09 -0.07,-0.01 -0.84,-0.02 -0.92,0.04 -0.08,0.11 -0.08,0.43 0,0.56l0.37 0.03c-0.19,0.36 -0.09,2.57 -0.09,3.11 0,0.04 0.03,0.07 0.07,0.07l1.17 0c0.04,0 0.07,-0.03 0.07,-0.07l0 -0.1zm-0.32 -3.29c0.1,-0.05 0.18,-0.27 0.29,-0.45 0.42,-0.69 0.35,-0.61 1.51,-0.66 0.54,-0.02 2.45,-0.07 2.83,-0.12 -0.33,-0.14 -2.98,-0.09 -3.66,-0.05 -0.3,0.02 -0.41,0 -0.55,0.21 -0.15,0.24 -0.35,0.79 -0.42,1.07zm5.57 1.26c-0.5,-0.08 -0.58,-0.07 -1.07,0 -0.06,0.01 -0.12,0.05 -0.12,0.11l0 0.39c0,0.06 0.05,0.1 0.12,0.11 0.48,0.06 0.59,0.07 1.07,0 0.06,-0.01 0.12,-0.05 0.12,-0.11l0 -0.39c0,-0.06 -0.06,-0.1 -0.12,-0.11zm-0.25 1.17c-0.14,-0.01 -0.29,-0.01 -0.43,0 -0.08,0 -0.17,0.01 -0.29,0.02 -0.05,0 -0.09,0.01 -0.09,0.04l0 0.14c0,0.03 0.04,0.04 0.09,0.04 0.41,0.03 0.51,0.03 0.91,0 0.06,0 0.1,-0.01 0.1,-0.04l0 -0.14c0,-0.03 -0.04,-0.04 -0.1,-0.04 -0.07,-0.01 -0.13,-0.01 -0.19,-0.02zm-5.67 -1.17c0.49,-0.08 0.57,-0.07 1.07,0 0.06,0.01 0.12,0.05 0.12,0.11l0 0.39c0,0.06 -0.06,0.1 -0.12,0.11 -0.48,0.06 -0.59,0.07 -1.07,0 -0.06,-0.01 -0.12,-0.05 -0.12,-0.11l0 -0.39c0,-0.06 0.06,-0.1 0.12,-0.11zm0.25 1.17c0.13,-0.01 0.29,-0.01 0.43,0 0.08,0 0.17,0.01 0.28,0.02 0.06,0 0.1,0.01 0.1,0.04l0 0.14c0,0.03 -0.04,0.04 -0.1,0.04 -0.4,0.03 -0.5,0.03 -0.91,0 -0.05,0 -0.09,-0.01 -0.09,-0.04l0 -0.14c0,-0.03 0.04,-0.04 0.09,-0.04 0.08,-0.01 0.14,-0.01 0.2,-0.02z"/>
  <path fill="#E94A7E" d="M3.83 0.01c-0.99,0.38 -2.32,1.06 -3.38,1.5 -0.18,0.07 -0.39,0.12 -0.31,0.38 0.1,0.35 0.73,-0.04 0.96,-0.14l1.93 -0.86c0.16,-0.07 0.33,-0.14 0.5,-0.22 0.17,-0.08 0.34,-0.21 0.52,-0.14l3.38 1.5c0.21,0.06 0.4,-0.13 0.3,-0.33 -0.08,-0.15 -2.52,-1.17 -2.87,-1.33 -0.2,-0.09 -0.83,-0.43 -1.03,-0.36z"/>
 </g>
</svg>
