<?xml version="1.0" encoding="UTF-8"?>
<!DOCTYPE svg PUBLIC "-//W3C//DTD SVG 1.1//EN" "http://www.w3.org/Graphics/SVG/1.1/DTD/svg11.dtd">
<!-- Creator: CorelDRAW 2017 -->
<svg xmlns="http://www.w3.org/2000/svg" xml:space="preserve" width="102px" height="110px" version="1.1" shape-rendering="geometricPrecision" text-rendering="geometricPrecision" image-rendering="optimizeQuality"
viewBox="0 0 3.49 3.76"
 xmlns:xlink="http://www.w3.org/1999/xlink">
 <g id="Слой_x0020_1">
  <metadata id="CorelCorpID_0Corel-Layer"/>
  <path fill-rule="evenodd" fill="#E94A7E" d="M2.81 3.13l0 -0.51c0.03,-0.02 0.07,-0.04 0.11,-0.06l0.33 -0.19 0 0.51c-0.04,0.02 -0.07,0.04 -0.11,0.06l-0.22 0.12c-0.02,0.01 -0.1,0.06 -0.11,0.07zm-1.08 -3.13c0.05,0 0.05,0 0.1,0.03l0.23 0.13c0.02,0.01 0.04,0.02 0.06,0.03 0.02,0.01 0.04,0.03 0.06,0.04l0.29 0.16c0.04,0.03 0.08,0.06 0.08,0.11 0,0.06 0,0.12 0,0.18 0.05,0.03 0.27,0.15 0.33,0.19 0.1,0.06 0.22,0.12 0.32,0.18 0.08,0.05 0.1,0.06 0.1,0.16l0 0.77c0.02,0.01 0.04,0.02 0.06,0.03 0.06,0.04 0.13,0.07 0.13,0.15l0 0.79c0,0.02 -0.01,0.05 -0.02,0.06 -0.02,0.04 -0.1,0.07 -0.14,0.1 -0.07,0.04 -0.14,0.08 -0.21,0.12 -0.07,0.04 -0.14,0.08 -0.21,0.12 -0.02,0.01 -0.03,0.02 -0.05,0.03l-0.1 0.06c-0.09,0.05 -0.14,0 -0.2,-0.04 -0.01,0 -0.02,-0.01 -0.03,-0.01 -0.04,-0.02 -0.04,-0.03 -0.06,-0.02l-0.13 0.08c-0.1,0.06 -0.23,0.12 -0.33,0.18l-0.17 0.1c-0.03,0.02 -0.04,0.02 -0.05,0.03 -0.11,0 -0.1,-0.01 -0.2,-0.06 -0.18,-0.11 -0.37,-0.21 -0.55,-0.32 -0.04,-0.02 -0.03,-0.02 -0.05,-0.01l-0.06 0.03c-0.06,0.04 -0.11,0.09 -0.2,0.04 -0.08,-0.05 -0.17,-0.1 -0.26,-0.15l-0.18 -0.11c-0.01,0 -0.01,0 -0.02,-0.01 -0.04,-0.02 -0.07,-0.04 -0.11,-0.06l-0.07 -0.04c-0.01,-0.01 -0.02,-0.01 -0.03,-0.02 -0.03,-0.02 -0.06,-0.06 -0.06,-0.1l0 -0.79c0,-0.03 0.01,-0.05 0.02,-0.07 0.02,-0.02 0.03,-0.03 0.05,-0.04l0.12 -0.07 0 -0.77c0,-0.05 0,-0.08 0.03,-0.11 0.03,-0.03 0.19,-0.12 0.23,-0.14 0.03,-0.02 0.06,-0.03 0.09,-0.05l0.4 -0.23c0,-0.06 0,-0.13 0,-0.19 0,-0.05 0.04,-0.08 0.08,-0.1l0.12 -0.06c0.09,-0.06 0.2,-0.12 0.29,-0.17l0.18 -0.1c0.02,-0.01 0.09,-0.06 0.12,-0.06zm0.39 2.37c0.02,0 0.29,0.16 0.33,0.19l0.12 0.06 0 0.51c-0.02,0 -0.1,-0.06 -0.12,-0.06 -0.01,-0.01 -0.03,-0.02 -0.05,-0.04l-0.28 -0.15 0 -0.51zm-1.88 0c0.02,0.01 0.04,0.02 0.06,0.03l0.39 0.22 0 0.51c-0.02,-0.01 -0.02,-0.01 -0.03,-0.02l-0.36 -0.2c-0.01,-0.01 -0.02,-0.01 -0.03,-0.02 -0.01,0 -0.02,-0.01 -0.03,-0.01l0 -0.51zm0.69 0.76l0 -0.51c0.03,-0.02 0.18,-0.1 0.22,-0.12l0.16 -0.1c0.02,-0.01 0.05,-0.03 0.06,-0.03 0,0.16 0,0.34 0,0.49 0,0.01 0,0.02 -0.01,0.02 -0.01,0.01 -0.02,0.01 -0.03,0.02 -0.01,0 -0.01,0 -0.02,0.01l-0.14 0.08c-0.01,0.01 -0.02,0.01 -0.03,0.02l-0.16 0.09c-0.01,0.01 -0.02,0.01 -0.03,0.01 -0.01,0.01 -0.01,0.01 -0.02,0.02zm2.19 -0.97c0,0.01 -0.03,0.02 -0.05,0.03l-0.38 0.22c-0.01,0 -0.35,-0.2 -0.39,-0.22 -0.01,0 -0.01,-0.01 -0.02,-0.01 -0.01,-0.01 -0.02,-0.01 -0.03,-0.02 0,-0.01 0.04,-0.02 0.05,-0.03l0.38 -0.22c0.02,0 0.25,0.14 0.28,0.15 0.02,0.02 0.15,0.09 0.16,0.1zm-2.75 0c0.01,-0.01 0.09,-0.06 0.11,-0.06l0.33 -0.19 0.33 0.19c0.01,0.01 0.1,0.05 0.11,0.06 -0.02,0.01 -0.02,0.01 -0.03,0.02 -0.06,0.03 -0.4,0.23 -0.41,0.23 -0.01,0 -0.35,-0.2 -0.41,-0.23 -0.01,-0.01 -0.02,-0.01 -0.03,-0.02l0 0zm0.07 -0.32l0 -0.59 0.44 -0.25c0.01,-0.01 0.02,-0.01 0.03,-0.02 0.01,-0.01 0.02,-0.02 0.03,-0.02l0 0.31c0,0.06 0,0.1 0.07,0.14l0.19 0.11c0.03,0.01 0.05,0.02 0.07,0.03l0.06 0.04c0.05,0.03 0.09,0.05 0.14,0.08l0.22 0.13c0.03,0.01 0.04,0.01 0.07,0.01 0.03,0 0.1,-0.05 0.13,-0.07 0.13,-0.07 0.27,-0.15 0.4,-0.22l0.19 -0.11c0.03,-0.02 0.04,-0.03 0.06,-0.05 0.01,-0.03 0.01,-0.04 0.01,-0.09l0 -0.31c0.11,0.06 0.26,0.15 0.38,0.22l0.13 0.07 0 0.59c-0.07,-0.04 -0.15,-0.09 -0.23,-0.13 -0.12,-0.07 -0.12,-0.1 -0.26,-0.02l-0.41 0.24c-0.01,0.01 -0.02,0.01 -0.03,0.02l-0.18 0.1c-0.04,0.02 -0.07,0.06 -0.07,0.1l0 0.8c0,0.08 0.08,0.11 0.16,0.16 0.01,0.01 0.19,0.1 0.2,0.11 -0.01,0.01 -0.05,0.03 -0.06,0.04 -0.03,0.01 -0.04,0.02 -0.06,0.03 -0.03,0.02 -0.37,0.21 -0.37,0.21 -0.01,0 -0.12,-0.06 -0.13,-0.07l-0.18 -0.1c-0.02,-0.01 -0.04,-0.02 -0.06,-0.04 -0.04,-0.02 -0.08,-0.04 -0.12,-0.07 0,0 0.03,-0.02 0.04,-0.03l0.25 -0.14c0.03,-0.02 0.06,-0.05 0.06,-0.1l0 -0.8c0,-0.04 -0.03,-0.08 -0.06,-0.1l-0.42 -0.23c-0.03,-0.03 -0.26,-0.16 -0.29,-0.17 -0.06,-0.02 -0.09,0.01 -0.13,0.04 -0.09,0.04 -0.19,0.11 -0.27,0.15zm1.43 -0.36l0 -0.51 0.33 -0.19c0.04,-0.02 0.07,-0.04 0.11,-0.06l0 0.51c-0.09,0.04 -0.24,0.14 -0.33,0.18l-0.11 0.07zm-0.69 -0.76c0.04,0.02 0.08,0.04 0.11,0.06 0.09,0.05 0.2,0.11 0.28,0.16l0.05 0.03 0 0.51c-0.01,-0.01 -0.2,-0.12 -0.22,-0.13 -0.07,-0.04 -0.15,-0.09 -0.22,-0.12l0 -0.51zm0.13 -0.21c0.01,-0.01 0.09,-0.05 0.11,-0.06l0.27 -0.16c0.01,-0.01 0.05,-0.03 0.06,-0.03l0.41 0.24c0.01,0 0.02,0 0.02,0.01 -0.01,0.01 -0.01,0.01 -0.02,0.02 -0.06,0.03 -0.41,0.23 -0.41,0.23 -0.01,0 -0.42,-0.24 -0.44,-0.25l0 0z"/>
 </g>
</svg>
